<svg xmlns="http://www.w3.org/2000/svg" viewBox="0 0 200 200" width="200" height="200">
	<style>
		tspan { white-space:pre }
		.shp0 { fill: #170031 } 
		.shp1 { fill: #ffffff } 
		.shp2 { fill: #c8b3f6 } 
	</style>
	<g >
		<path class="shp0" d="M97.36 0.51C96.93 0.56 95 0.68 93.07 0.78C91.13 0.88 88.8 1.05 87.89 1.15C86.98 1.25 85.22 1.52 83.98 1.75C82.75 1.98 81.21 2.25 80.57 2.34C79.92 2.44 78.34 2.79 77.05 3.13C75.76 3.47 74.36 3.81 73.93 3.89C73.5 3.98 72.53 4.25 71.78 4.49C71.03 4.73 69.53 5.21 68.46 5.57C67.38 5.92 65.8 6.47 64.94 6.79C64.08 7.11 62.68 7.65 61.82 8C60.96 8.35 58.41 9.54 56.15 10.66C53.9 11.77 51.61 12.94 51.07 13.26C50.54 13.58 49.79 14.01 49.41 14.21C49.04 14.42 48.07 15.02 47.27 15.55C46.46 16.07 45.7 16.55 45.57 16.6C45.45 16.66 44.85 17.05 44.25 17.48C43.64 17.91 42.25 18.91 41.15 19.71C40.06 20.5 38.24 21.91 37.11 22.83C35.98 23.75 34.01 25.47 32.72 26.66C31.44 27.84 30.03 29.16 29.6 29.6C29.16 30.03 27.8 31.48 26.56 32.82C25.33 34.16 23.44 36.35 22.36 37.7C21.28 39.04 19.95 40.75 19.41 41.5C18.86 42.26 18.03 43.44 17.56 44.14C17.09 44.84 16.66 45.5 16.6 45.6C16.55 45.71 16.07 46.46 15.55 47.27C15.02 48.07 14.42 49.04 14.22 49.41C14.01 49.79 13.66 50.41 13.44 50.78C13.21 51.16 12.43 52.61 11.69 54C10.95 55.4 10.29 56.72 10.22 56.93C10.16 57.15 9.81 57.9 9.46 58.59C9.1 59.29 8.45 60.74 8.01 61.82C7.57 62.89 7.03 64.3 6.81 64.94C6.59 65.59 6.3 66.38 6.16 66.7C6.02 67.02 5.69 67.99 5.42 68.85C5.15 69.71 4.7 71.16 4.42 72.07C4.15 72.98 3.69 74.65 3.4 75.78C3.12 76.91 2.8 78.23 2.7 78.71C2.59 79.19 2.44 80.07 2.35 80.66C2.26 81.25 1.99 82.75 1.76 83.98C1.52 85.22 1.25 86.98 1.15 87.89C1.05 88.8 0.88 91 0.76 92.77C0.65 94.55 0.56 97.8 0.56 100C0.56 102.2 0.65 105.45 0.76 107.23C0.88 109 1.05 111.2 1.15 112.11C1.25 113.02 1.52 114.78 1.76 116.02C1.99 117.25 2.26 118.75 2.35 119.34C2.44 119.93 2.59 120.81 2.7 121.29C2.8 121.77 3.12 123.09 3.4 124.22C3.69 125.35 4.15 127.02 4.42 127.93C4.7 128.84 5.15 130.29 5.42 131.15C5.69 132.01 6.02 132.98 6.16 133.3C6.3 133.62 6.59 134.41 6.81 135.06C7.03 135.7 7.57 137.11 8.01 138.18C8.45 139.26 9.1 140.71 9.46 141.41C9.81 142.1 10.16 142.85 10.22 143.07C10.29 143.28 10.95 144.6 11.69 146C12.43 147.39 13.21 148.84 13.44 149.22C13.66 149.59 14.01 150.21 14.22 150.59C14.42 150.96 15.02 151.93 15.55 152.73C16.07 153.54 16.55 154.29 16.6 154.39C16.66 154.5 17.18 155.29 17.76 156.15C18.34 157.01 19.35 158.42 19.99 159.28C20.64 160.14 21.88 161.72 22.74 162.79C23.61 163.86 25.33 165.84 26.56 167.18C27.8 168.52 29.16 169.97 29.6 170.4C30.03 170.84 31.44 172.16 32.72 173.34C34.01 174.53 35.98 176.25 37.11 177.17C38.24 178.09 40.06 179.5 41.15 180.29C42.25 181.09 43.64 182.09 44.25 182.52C44.85 182.95 45.45 183.34 45.57 183.4C45.7 183.45 46.46 183.93 47.27 184.45C48.07 184.98 49.04 185.58 49.41 185.79C49.79 185.99 50.54 186.42 51.07 186.74C51.61 187.06 53.9 188.23 56.15 189.34C58.41 190.46 60.96 191.65 61.82 192C62.68 192.35 64.08 192.89 64.94 193.21C65.8 193.53 67.38 194.08 68.46 194.43C69.53 194.79 71.03 195.27 71.78 195.51C72.53 195.75 73.5 196.02 73.93 196.11C74.36 196.19 75.76 196.53 77.05 196.87C78.34 197.21 79.92 197.56 80.57 197.66C81.21 197.75 82.75 198.02 83.98 198.25C85.22 198.48 86.98 198.75 87.89 198.85C88.8 198.96 91.04 199.13 92.87 199.24C94.7 199.36 97.91 199.45 100 199.45C102.09 199.45 105.3 199.36 107.13 199.24C108.96 199.13 111.2 198.96 112.11 198.85C113.02 198.75 114.78 198.48 116.02 198.25C117.25 198.02 118.79 197.75 119.43 197.66C120.08 197.56 121.66 197.21 122.95 196.87C124.24 196.53 125.64 196.19 126.07 196.11C126.5 196.02 127.47 195.75 128.22 195.51C128.97 195.27 130.47 194.79 131.54 194.43C132.62 194.08 134.2 193.53 135.06 193.21C135.92 192.89 137.32 192.35 138.18 192C139.04 191.65 141.59 190.46 143.85 189.34C146.1 188.23 148.39 187.06 148.93 186.74C149.46 186.42 150.21 185.99 150.59 185.79C150.96 185.58 151.93 184.98 152.73 184.45C153.54 183.93 154.3 183.45 154.43 183.4C154.55 183.34 155.15 182.95 155.75 182.52C156.36 182.09 157.75 181.09 158.85 180.29C159.94 179.5 161.76 178.09 162.89 177.17C164.02 176.25 165.99 174.53 167.28 173.34C168.56 172.16 169.97 170.84 170.4 170.4C170.84 169.97 172.2 168.52 173.44 167.18C174.67 165.84 176.39 163.86 177.26 162.79C178.12 161.72 179.36 160.14 180.01 159.28C180.65 158.42 181.66 157.01 182.24 156.15C182.82 155.29 183.34 154.5 183.4 154.39C183.45 154.29 183.93 153.54 184.45 152.73C184.98 151.93 185.58 150.96 185.78 150.59C185.99 150.21 186.34 149.59 186.56 149.22C186.79 148.84 187.57 147.39 188.31 146C189.05 144.6 189.71 143.28 189.78 143.07C189.84 142.85 190.19 142.1 190.54 141.41C190.9 140.71 191.55 139.26 191.99 138.18C192.43 137.11 192.97 135.7 193.19 135.06C193.41 134.41 193.7 133.62 193.84 133.3C193.98 132.98 194.31 132.01 194.58 131.15C194.85 130.29 195.3 128.84 195.58 127.93C195.85 127.02 196.31 125.35 196.6 124.22C196.88 123.09 197.24 121.46 197.4 120.61C197.55 119.75 197.8 118.43 197.94 117.68C198.09 116.92 198.31 115.74 198.44 115.04C198.57 114.34 198.76 113.02 198.85 112.11C198.95 111.2 199.12 109 199.24 107.23C199.35 105.45 199.44 102.2 199.44 100C199.44 97.8 199.35 94.55 199.24 92.77C199.12 91 198.95 88.8 198.85 87.89C198.75 86.98 198.48 85.22 198.24 83.98C198.01 82.75 197.74 81.25 197.65 80.66C197.56 80.07 197.41 79.19 197.3 78.71C197.2 78.23 196.88 76.91 196.6 75.78C196.31 74.65 195.85 72.98 195.58 72.07C195.3 71.16 194.85 69.71 194.58 68.85C194.31 67.99 193.98 67.02 193.84 66.7C193.7 66.38 193.41 65.59 193.19 64.94C192.97 64.3 192.43 62.89 191.99 61.82C191.55 60.74 190.9 59.29 190.54 58.59C190.19 57.9 189.84 57.15 189.78 56.93C189.71 56.72 189.05 55.4 188.31 54C187.57 52.61 186.79 51.16 186.56 50.78C186.34 50.41 185.99 49.79 185.78 49.41C185.58 49.04 184.98 48.07 184.45 47.27C183.93 46.46 183.45 45.71 183.4 45.61C183.34 45.5 182.82 44.71 182.24 43.85C181.66 42.99 180.65 41.58 180.01 40.72C179.36 39.86 178.12 38.28 177.26 37.21C176.39 36.14 174.67 34.16 173.44 32.82C172.2 31.48 170.84 30.03 170.4 29.6C169.97 29.16 168.52 27.8 167.17 26.56C165.83 25.33 163.64 23.43 162.3 22.35C160.96 21.27 159.18 19.91 158.34 19.32C157.5 18.74 156.4 17.96 155.9 17.59C155.39 17.21 154.8 16.82 154.59 16.7C154.38 16.59 153.54 16.06 152.73 15.54C151.93 15.02 150.96 14.42 150.59 14.21C150.21 14.01 149.46 13.58 148.93 13.26C148.39 12.94 146.1 11.77 143.85 10.66C141.59 9.54 139.04 8.35 138.18 8C137.32 7.65 135.92 7.11 135.06 6.79C134.2 6.47 132.62 5.92 131.54 5.57C130.47 5.21 128.97 4.73 128.22 4.49C127.47 4.25 126.5 3.98 126.07 3.89C125.64 3.81 124.24 3.47 122.95 3.13C121.66 2.79 120.08 2.44 119.43 2.34C118.79 2.25 117.25 1.98 116.02 1.75C114.78 1.52 113.02 1.25 112.11 1.14C111.2 1.04 109.13 0.88 107.52 0.79C105.91 0.7 103.14 0.59 101.37 0.53C99.59 0.48 97.79 0.47 97.36 0.51Z" />
		<path class="shp1" d="M96.19 4.12C95.22 4.2 93.51 4.32 92.38 4.39C91.25 4.45 89.76 4.6 89.06 4.72C88.36 4.83 87.22 5 86.52 5.08C85.83 5.17 84.59 5.33 83.79 5.43C82.98 5.53 82.02 5.7 81.64 5.82C81.26 5.93 80.47 6.12 79.88 6.24C79.29 6.36 78.5 6.53 78.13 6.63C77.75 6.72 76.96 6.89 76.37 7.01C75.78 7.13 75.12 7.3 74.9 7.4C74.69 7.49 74.12 7.67 73.63 7.8C73.15 7.92 72.14 8.2 71.39 8.41C70.63 8.63 69.94 8.89 69.83 8.99C69.73 9.09 69.49 9.18 69.3 9.18C69.1 9.18 68.66 9.3 68.31 9.46C67.96 9.61 67.32 9.84 66.89 9.97C66.46 10.1 65.81 10.33 65.43 10.49C65.05 10.65 64.28 10.99 63.72 11.25C63.16 11.51 62.65 11.72 62.6 11.72C62.54 11.72 62.17 11.86 61.77 12.04C61.36 12.22 59.45 13.14 57.52 14.09C55.59 15.04 53.65 16.02 53.22 16.26C52.79 16.5 51.91 17.03 51.27 17.43C50.63 17.82 50.03 18.15 49.95 18.16C49.87 18.16 49.3 18.52 48.68 18.94C48.06 19.37 46.68 20.31 45.61 21.04C44.53 21.76 42.99 22.86 42.19 23.49C41.38 24.11 40.2 25.04 39.57 25.55C38.93 26.05 37.62 27.17 36.65 28.03C35.69 28.89 34.02 30.42 32.95 31.45C31.89 32.47 29.99 34.44 28.74 35.84C27.49 37.24 26.03 38.94 25.49 39.63C24.95 40.31 24.16 41.32 23.72 41.87C23.29 42.42 22.44 43.57 21.85 44.43C21.25 45.29 20.18 46.85 19.46 47.9C18.75 48.95 18.16 49.85 18.16 49.9C18.16 49.96 17.67 50.81 17.08 51.81C16.48 52.8 15.17 55.28 14.17 57.32C13.16 59.37 12.2 61.36 12.03 61.77C11.86 62.17 11.72 62.54 11.72 62.6C11.72 62.65 11.51 63.16 11.25 63.72C10.99 64.28 10.65 65.05 10.49 65.43C10.33 65.81 10.1 66.46 9.97 66.89C9.84 67.32 9.61 67.96 9.46 68.31C9.3 68.66 9.18 69.06 9.18 69.19C9.18 69.32 9.11 69.52 9.01 69.63C8.91 69.74 8.65 70.48 8.43 71.29C8.21 72.09 7.93 73.15 7.8 73.63C7.67 74.12 7.49 74.69 7.4 74.9C7.3 75.12 7.13 75.78 7.01 76.37C6.89 76.96 6.73 77.75 6.64 78.13C6.55 78.5 6.39 79.12 6.27 79.49C6.15 79.87 6.06 80.44 6.06 80.76C6.06 81.08 5.98 81.44 5.87 81.54C5.77 81.65 5.58 82.53 5.46 83.5C5.35 84.46 5.17 85.83 5.08 86.52C4.98 87.22 4.82 88.36 4.71 89.06C4.59 89.76 4.46 91.17 4.41 92.19C4.35 93.21 4.21 95.36 4.09 96.97C3.93 99.13 3.93 100.7 4.09 102.93C4.21 104.59 4.35 106.79 4.41 107.81C4.46 108.83 4.6 110.24 4.71 110.94C4.83 111.64 5 112.78 5.08 113.48C5.17 114.17 5.34 115.54 5.46 116.5C5.58 117.47 5.77 118.35 5.87 118.46C5.98 118.56 6.06 118.92 6.06 119.24C6.06 119.56 6.15 120.13 6.27 120.51C6.39 120.88 6.55 121.5 6.64 121.88C6.73 122.25 6.89 123.04 7.01 123.63C7.13 124.22 7.3 124.88 7.4 125.1C7.49 125.31 7.67 125.88 7.8 126.37C7.93 126.85 8.21 127.91 8.43 128.71C8.65 129.52 8.91 130.26 9.01 130.37C9.11 130.48 9.18 130.68 9.18 130.81C9.18 130.94 9.3 131.34 9.46 131.69C9.61 132.04 9.84 132.68 9.97 133.11C10.1 133.54 10.33 134.19 10.49 134.57C10.65 134.95 10.99 135.72 11.25 136.28C11.51 136.84 11.72 137.35 11.72 137.4C11.72 137.46 11.86 137.83 12.03 138.23C12.2 138.64 13.16 140.63 14.17 142.68C15.17 144.72 16.48 147.2 17.08 148.19C17.67 149.19 18.16 150.04 18.16 150.1C18.16 150.15 18.75 151.05 19.46 152.1C20.18 153.15 21.25 154.71 21.85 155.57C22.44 156.43 23.29 157.58 23.72 158.13C24.16 158.68 24.95 159.69 25.49 160.37C26.03 161.06 27.49 162.76 28.74 164.16C29.99 165.56 31.89 167.53 32.95 168.55C34.02 169.58 35.69 171.11 36.65 171.97C37.62 172.83 38.93 173.95 39.57 174.45C40.2 174.96 41.38 175.89 42.19 176.51C42.99 177.14 44.53 178.24 45.61 178.96C46.68 179.69 48.06 180.63 48.68 181.06C49.3 181.48 49.87 181.84 49.95 181.84C50.03 181.85 50.63 182.18 51.27 182.57C51.91 182.97 52.79 183.5 53.22 183.74C53.65 183.98 55.59 184.96 57.52 185.91C59.45 186.86 61.36 187.78 61.77 187.96C62.17 188.14 62.54 188.28 62.6 188.28C62.65 188.28 63.16 188.49 63.72 188.75C64.28 189.01 65.05 189.35 65.43 189.51C65.81 189.67 66.46 189.9 66.89 190.03C67.32 190.16 67.96 190.39 68.31 190.54C68.66 190.7 69.1 190.82 69.29 190.82C69.48 190.82 69.72 190.9 69.82 191.01C69.93 191.11 70.63 191.37 71.39 191.59C72.14 191.8 73.15 192.08 73.63 192.2C74.12 192.33 74.69 192.51 74.9 192.6C75.12 192.7 75.78 192.87 76.37 192.99C76.96 193.11 77.75 193.28 78.13 193.37C78.5 193.47 79.29 193.64 79.88 193.76C80.47 193.88 81.4 194.11 81.93 194.26C82.47 194.41 83.15 194.54 83.45 194.54C83.74 194.53 84.62 194.63 85.4 194.74C86.18 194.85 87.61 195.07 88.57 195.23C89.54 195.38 91.17 195.55 92.19 195.6C93.21 195.65 95.36 195.79 96.97 195.91C99.13 196.07 100.7 196.07 102.93 195.91C104.59 195.79 106.79 195.65 107.81 195.6C108.83 195.55 110.46 195.38 111.43 195.23C112.39 195.07 113.82 194.85 114.6 194.74C115.38 194.63 116.26 194.53 116.55 194.54C116.85 194.54 117.53 194.41 118.07 194.26C118.6 194.11 119.53 193.88 120.12 193.76C120.71 193.64 121.5 193.47 121.88 193.37C122.25 193.28 123.04 193.11 123.63 192.99C124.22 192.87 124.88 192.7 125.1 192.6C125.31 192.51 125.88 192.33 126.37 192.2C126.85 192.08 127.86 191.8 128.61 191.59C129.37 191.37 130.06 191.11 130.17 191.01C130.27 190.91 130.51 190.82 130.7 190.82C130.9 190.82 131.34 190.7 131.69 190.54C132.04 190.39 132.68 190.16 133.11 190.03C133.54 189.9 134.19 189.67 134.57 189.51C134.95 189.35 135.72 189.01 136.28 188.75C136.84 188.49 137.35 188.28 137.4 188.28C137.46 188.28 137.83 188.14 138.23 187.96C138.64 187.78 140.55 186.86 142.48 185.91C144.41 184.96 146.35 183.98 146.78 183.74C147.21 183.5 148.09 182.97 148.73 182.57C149.38 182.18 149.97 181.85 150.05 181.84C150.13 181.84 150.7 181.48 151.32 181.06C151.94 180.63 153.32 179.69 154.39 178.96C155.47 178.24 157.01 177.14 157.81 176.51C158.62 175.89 159.8 174.96 160.43 174.45C161.07 173.95 162.38 172.83 163.35 171.97C164.31 171.11 165.98 169.58 167.05 168.55C168.11 167.53 170.01 165.56 171.26 164.16C172.51 162.76 173.97 161.06 174.51 160.37C175.05 159.69 175.84 158.68 176.28 158.13C176.71 157.58 177.56 156.43 178.15 155.57C178.75 154.71 179.82 153.15 180.54 152.1C181.25 151.05 181.84 150.15 181.84 150.1C181.84 150.04 182.33 149.19 182.92 148.19C183.52 147.2 184.83 144.72 185.83 142.68C186.84 140.63 187.8 138.64 187.97 138.23C188.14 137.83 188.28 137.46 188.28 137.4C188.28 137.35 188.49 136.84 188.75 136.28C189.01 135.72 189.35 134.95 189.51 134.57C189.67 134.19 189.9 133.54 190.03 133.11C190.16 132.68 190.39 132.04 190.54 131.69C190.7 131.34 190.82 130.94 190.82 130.81C190.82 130.68 190.89 130.48 190.99 130.37C191.09 130.26 191.35 129.52 191.57 128.71C191.79 127.91 192.07 126.85 192.2 126.37C192.33 125.88 192.51 125.31 192.6 125.1C192.7 124.88 192.87 124.22 192.99 123.63C193.11 123.04 193.27 122.25 193.36 121.88C193.45 121.5 193.61 120.88 193.73 120.51C193.85 120.13 193.95 119.54 193.95 119.19C193.95 118.84 194.03 118.51 194.14 118.46C194.25 118.4 194.38 117.9 194.44 117.33C194.49 116.77 194.63 115.61 194.74 114.75C194.85 113.89 195.07 112.39 195.22 111.43C195.38 110.46 195.55 108.83 195.6 107.81C195.65 106.79 195.79 104.64 195.91 103.03C196.07 100.87 196.07 99.3 195.91 97.07C195.79 95.41 195.65 93.21 195.6 92.19C195.55 91.17 195.38 89.54 195.22 88.57C195.07 87.61 194.85 86.11 194.74 85.25C194.63 84.39 194.49 83.23 194.44 82.67C194.38 82.1 194.25 81.6 194.14 81.54C194.03 81.49 193.95 81.16 193.95 80.81C193.95 80.46 193.85 79.87 193.73 79.49C193.61 79.12 193.45 78.5 193.36 78.13C193.27 77.75 193.11 76.96 192.99 76.37C192.87 75.78 192.7 75.12 192.6 74.9C192.51 74.69 192.33 74.12 192.2 73.63C192.07 73.15 191.79 72.09 191.57 71.29C191.35 70.48 191.09 69.74 190.99 69.63C190.89 69.52 190.82 69.32 190.82 69.19C190.82 69.06 190.7 68.66 190.54 68.31C190.39 67.96 190.16 67.32 190.03 66.89C189.9 66.46 189.67 65.81 189.51 65.43C189.35 65.05 189.01 64.28 188.75 63.72C188.49 63.16 188.28 62.65 188.28 62.6C188.28 62.54 188.14 62.17 187.97 61.77C187.8 61.36 186.84 59.37 185.83 57.32C184.83 55.28 183.52 52.8 182.92 51.81C182.33 50.81 181.84 49.96 181.84 49.9C181.84 49.85 181.25 48.95 180.54 47.9C179.82 46.85 178.75 45.29 178.15 44.43C177.56 43.57 176.71 42.42 176.28 41.87C175.84 41.32 175.05 40.31 174.51 39.63C173.97 38.94 172.51 37.24 171.26 35.84C170.01 34.44 168.11 32.47 167.05 31.45C165.98 30.42 164.31 28.89 163.35 28.03C162.38 27.17 161.07 26.05 160.43 25.55C159.8 25.04 158.62 24.11 157.81 23.49C157.01 22.86 155.47 21.76 154.39 21.04C153.32 20.31 151.94 19.37 151.32 18.94C150.7 18.52 150.13 18.16 150.05 18.16C149.97 18.15 149.38 17.82 148.73 17.43C148.09 17.03 147.21 16.5 146.78 16.26C146.35 16.02 144.41 15.04 142.48 14.09C140.55 13.14 138.64 12.22 138.23 12.04C137.83 11.86 137.46 11.72 137.4 11.72C137.35 11.72 136.84 11.51 136.28 11.25C135.72 10.99 134.95 10.65 134.57 10.49C134.19 10.33 133.54 10.1 133.11 9.97C132.68 9.84 132.04 9.61 131.69 9.46C131.34 9.3 130.9 9.18 130.71 9.18C130.52 9.18 130.28 9.1 130.18 8.99C130.07 8.89 129.37 8.63 128.61 8.41C127.86 8.2 126.85 7.92 126.37 7.8C125.88 7.67 125.31 7.49 125.1 7.4C124.88 7.3 124.22 7.13 123.63 7.01C123.04 6.89 122.25 6.72 121.88 6.63C121.5 6.53 120.71 6.36 120.12 6.24C119.53 6.12 118.74 5.93 118.36 5.82C117.98 5.7 117.1 5.54 116.41 5.45C115.71 5.37 114.48 5.21 113.67 5.1C112.87 4.99 111.64 4.81 110.94 4.7C110.24 4.59 108.83 4.46 107.81 4.41C106.79 4.35 104.95 4.22 103.71 4.12C102.48 4.02 100.67 3.94 99.71 3.95C98.74 3.97 97.16 4.04 96.19 4.12Z" />
		<path class="shp2" d="M91.21 6.56C89.98 6.71 88.26 6.92 87.4 7.03C86.54 7.15 85.05 7.37 84.08 7.53C83.12 7.69 81.75 7.95 81.05 8.1C80.36 8.25 78.82 8.6 77.64 8.88C76.46 9.16 75.05 9.52 74.51 9.67C73.97 9.83 72.17 10.41 70.51 10.96C68.84 11.51 67.22 12.07 66.89 12.2C66.57 12.34 65.91 12.6 65.43 12.79C64.95 12.98 64.38 13.2 64.16 13.29C63.95 13.38 63.42 13.6 62.99 13.78C62.56 13.96 61.46 14.46 60.55 14.89C59.63 15.32 58.49 15.87 58.01 16.11C57.52 16.35 56.34 16.97 55.37 17.48C54.4 18 53.44 18.52 53.22 18.64C53 18.75 52.56 19.03 52.24 19.26C51.92 19.48 51.53 19.72 51.37 19.8C51.21 19.88 50.9 20.04 50.68 20.17C50.46 20.3 49.05 21.24 47.55 22.25C46.05 23.27 44.74 24.17 44.63 24.26C44.52 24.35 43.77 24.92 42.97 25.53C42.16 26.14 40.45 27.53 39.16 28.62C37.87 29.71 35.42 32 33.71 33.71C32 35.42 29.71 37.87 28.62 39.16C27.53 40.45 26.14 42.16 25.53 42.97C24.92 43.77 24.35 44.52 24.26 44.63C24.16 44.74 23.26 46.06 22.25 47.58C21.24 49.09 20.31 50.5 20.18 50.7C20.05 50.91 19.48 51.87 18.92 52.83C18.35 53.8 17.59 55.16 17.23 55.86C16.87 56.56 16.37 57.52 16.12 58.01C15.87 58.49 15.3 59.68 14.85 60.64C14.39 61.61 13.95 62.58 13.86 62.79C13.77 63.01 13.51 63.62 13.29 64.16C13.06 64.7 12.79 65.29 12.69 65.48C12.58 65.67 12.5 65.97 12.5 66.16C12.51 66.35 12.43 66.59 12.33 66.7C12.23 66.81 11.68 68.34 11.09 70.12C10.5 71.89 9.88 73.82 9.71 74.41C9.53 75 9.17 76.41 8.91 77.54C8.64 78.67 8.29 80.21 8.13 80.96C7.97 81.71 7.7 83.12 7.54 84.08C7.38 85.05 7.15 86.54 7.04 87.4C6.92 88.26 6.7 90.13 6.54 91.55C6.35 93.27 6.25 96.11 6.25 100C6.25 103.89 6.35 106.73 6.54 108.45C6.7 109.87 6.92 111.74 7.04 112.6C7.15 113.46 7.38 114.95 7.54 115.92C7.7 116.88 7.97 118.29 8.13 119.04C8.29 119.79 8.64 121.33 8.91 122.46C9.17 123.59 9.52 124.95 9.67 125.49C9.83 126.03 10.41 127.83 10.96 129.49C11.51 131.16 12.07 132.78 12.2 133.11C12.34 133.43 12.57 134 12.7 134.38C12.84 134.75 13.12 135.45 13.32 135.94C13.53 136.42 13.77 136.99 13.86 137.21C13.95 137.42 14.39 138.39 14.85 139.36C15.3 140.32 15.87 141.51 16.12 141.99C16.37 142.48 16.87 143.44 17.23 144.14C17.59 144.84 18.35 146.2 18.92 147.17C19.48 148.13 20.05 149.09 20.18 149.3C20.31 149.5 21.24 150.91 22.25 152.42C23.26 153.94 24.16 155.26 24.26 155.37C24.35 155.48 24.92 156.23 25.53 157.03C26.14 157.84 27.53 159.55 28.62 160.84C29.71 162.13 32 164.58 33.71 166.29C35.42 168 37.87 170.29 39.16 171.38C40.45 172.47 42.16 173.86 42.97 174.47C43.77 175.08 44.52 175.65 44.63 175.74C44.74 175.83 46.05 176.73 47.55 177.75C49.05 178.76 50.46 179.7 50.68 179.83C50.9 179.96 51.21 180.12 51.37 180.2C51.53 180.28 51.92 180.52 52.24 180.74C52.56 180.97 53 181.25 53.22 181.36C53.44 181.48 54.4 182 55.37 182.52C56.34 183.03 57.52 183.65 58.01 183.89C58.49 184.13 59.63 184.68 60.55 185.11C61.46 185.54 62.56 186.04 62.99 186.22C63.42 186.4 63.95 186.62 64.16 186.71C64.38 186.8 64.95 187.02 65.43 187.21C65.91 187.4 66.57 187.66 66.89 187.8C67.22 187.93 68.84 188.49 70.51 189.04C72.17 189.59 73.97 190.17 74.51 190.33C75.05 190.48 76.46 190.84 77.64 191.12C78.82 191.4 80.36 191.75 81.05 191.9C81.75 192.05 83.12 192.31 84.08 192.47C85.05 192.63 86.54 192.85 87.4 192.96C88.26 193.08 90.13 193.3 91.55 193.46C93.27 193.65 96.11 193.75 100 193.75C103.89 193.75 106.73 193.65 108.45 193.46C109.87 193.3 111.74 193.08 112.6 192.96C113.46 192.85 114.95 192.63 115.92 192.47C116.88 192.31 118.25 192.05 118.95 191.9C119.64 191.75 121.18 191.4 122.36 191.12C123.54 190.84 124.95 190.48 125.49 190.33C126.03 190.17 127.83 189.59 129.49 189.04C131.16 188.49 132.78 187.93 133.11 187.8C133.43 187.66 134.09 187.4 134.57 187.21C135.05 187.02 135.76 186.74 136.13 186.58C136.51 186.43 136.99 186.23 137.21 186.14C137.42 186.05 138.39 185.61 139.36 185.15C140.32 184.7 141.51 184.13 141.99 183.89C142.48 183.65 143.66 183.03 144.63 182.52C145.6 182 146.56 181.48 146.78 181.36C147 181.25 147.44 180.97 147.76 180.74C148.08 180.52 148.47 180.28 148.63 180.2C148.79 180.12 149.1 179.96 149.32 179.83C149.54 179.7 150.95 178.76 152.45 177.75C153.95 176.73 155.26 175.83 155.37 175.74C155.48 175.65 156.23 175.08 157.03 174.47C157.84 173.86 159.55 172.47 160.84 171.38C162.13 170.29 164.58 168 166.29 166.29C168 164.58 170.29 162.13 171.38 160.84C172.47 159.55 173.86 157.84 174.47 157.03C175.08 156.23 175.78 155.31 176.02 154.99C176.27 154.68 176.55 154.27 176.66 154.08C176.77 153.89 177.47 152.83 178.22 151.72C178.97 150.61 179.68 149.56 179.79 149.37C179.89 149.19 180.46 148.22 181.05 147.22C181.63 146.23 182.41 144.84 182.77 144.14C183.13 143.44 183.63 142.48 183.88 141.99C184.13 141.51 184.7 140.32 185.15 139.36C185.61 138.39 186.05 137.42 186.14 137.21C186.23 136.99 186.47 136.42 186.68 135.94C186.88 135.45 187.16 134.75 187.3 134.38C187.43 134 187.66 133.43 187.8 133.11C187.93 132.78 188.49 131.16 189.04 129.49C189.59 127.83 190.17 126.03 190.33 125.49C190.48 124.95 190.83 123.59 191.09 122.46C191.36 121.33 191.71 119.79 191.87 119.04C192.03 118.29 192.3 116.88 192.46 115.92C192.62 114.95 192.85 113.46 192.96 112.6C193.08 111.74 193.3 109.87 193.46 108.45C193.65 106.73 193.75 103.89 193.75 100C193.75 96.11 193.65 93.27 193.46 91.55C193.3 90.13 193.08 88.26 192.96 87.4C192.85 86.54 192.62 85.05 192.46 84.08C192.3 83.12 192.03 81.71 191.87 80.96C191.71 80.21 191.36 78.67 191.09 77.54C190.83 76.41 190.48 75.05 190.33 74.51C190.17 73.97 189.59 72.17 189.04 70.51C188.49 68.84 187.93 67.22 187.8 66.89C187.66 66.57 187.43 66 187.3 65.63C187.16 65.25 186.88 64.55 186.68 64.06C186.47 63.58 186.23 63.01 186.14 62.79C186.05 62.58 185.61 61.61 185.15 60.64C184.7 59.68 184.13 58.49 183.88 58.01C183.63 57.52 183.13 56.56 182.77 55.86C182.41 55.16 181.65 53.8 181.08 52.83C180.52 51.87 179.95 50.91 179.82 50.7C179.69 50.5 178.76 49.09 177.75 47.58C176.74 46.06 175.84 44.74 175.74 44.63C175.65 44.52 175.08 43.77 174.47 42.97C173.86 42.16 172.47 40.45 171.38 39.16C170.29 37.87 168 35.42 166.29 33.71C164.58 32 162.13 29.71 160.84 28.62C159.55 27.53 157.84 26.14 157.03 25.53C156.23 24.92 155.48 24.35 155.37 24.26C155.26 24.17 153.95 23.27 152.45 22.25C150.95 21.24 149.54 20.3 149.32 20.17C149.1 20.04 148.79 19.88 148.63 19.8C148.47 19.72 148.08 19.48 147.76 19.26C147.44 19.03 147 18.75 146.78 18.64C146.56 18.52 145.6 18 144.63 17.48C143.66 16.97 142.48 16.35 141.99 16.11C141.51 15.87 140.37 15.32 139.45 14.89C138.54 14.46 137.44 13.96 137.01 13.78C136.58 13.6 136.01 13.36 135.74 13.25C135.47 13.14 135.01 12.93 134.72 12.77C134.42 12.62 134.03 12.5 133.84 12.5C133.65 12.51 133.41 12.43 133.3 12.33C133.19 12.23 131.66 11.68 129.88 11.09C128.11 10.5 126.18 9.88 125.59 9.71C125 9.53 123.54 9.16 122.36 8.88C121.18 8.6 119.64 8.25 118.95 8.1C118.25 7.95 116.88 7.69 115.92 7.53C114.95 7.37 113.46 7.15 112.6 7.04C111.74 6.92 109.87 6.7 108.45 6.54C106.63 6.34 104.01 6.26 99.66 6.28C95.89 6.29 92.58 6.4 91.21 6.56Z" />
		<path class="shp0" d="M102.83 16.58C102.51 16.66 101.89 16.91 101.46 17.14C101.04 17.36 100.45 17.79 100.17 18.1C99.89 18.4 99.44 19.05 99.17 19.53C98.9 20.01 98.48 21.03 98.24 21.78C97.84 22.98 97.78 23.63 97.71 27.25C97.63 31.03 97.66 31.44 98.04 32.62C98.27 33.32 98.7 34.23 98.99 34.65C99.28 35.07 99.82 35.66 100.2 35.97C100.57 36.27 101.36 36.66 101.95 36.81C102.54 36.97 103.38 37.11 103.81 37.11C104.24 37.11 105.07 36.97 105.66 36.79C106.38 36.58 107.03 36.19 107.62 35.64C108.12 35.17 108.72 34.32 109.02 33.67C109.31 33.04 109.69 31.99 109.86 31.35C110.03 30.7 110.22 28.88 110.28 27.25C110.36 25.47 110.32 23.66 110.19 22.66C110.07 21.74 109.8 20.6 109.59 20.12C109.38 19.63 108.87 18.84 108.45 18.36C107.97 17.82 107.28 17.3 106.62 17.02C106.04 16.76 105.08 16.52 104.49 16.49C103.9 16.45 103.15 16.49 102.83 16.58ZM84.86 18.01C84 18.11 83.21 18.27 83.11 18.37C82.98 18.48 83.02 18.76 83.23 19.18C83.41 19.54 83.69 20.57 83.86 21.48C84.02 22.4 84.37 24.64 84.64 26.46C84.91 28.29 85.35 31.32 85.62 33.2C85.88 35.08 86.06 36.93 86 37.3C85.93 37.77 85.98 38.03 86.16 38.11C86.31 38.17 88.4 37.92 90.82 37.54C93.24 37.17 95.26 36.82 95.31 36.78C95.37 36.74 95.29 35.98 95.14 35.1C94.99 34.22 94.8 33.36 94.71 33.2C94.57 32.96 94.41 33.03 93.8 33.6C93.2 34.17 92.76 34.36 91.36 34.67C90.22 34.93 89.58 34.99 89.44 34.86C89.33 34.76 89.06 33.61 88.85 32.32C88.64 31.04 88.39 29.23 88.29 28.32C88.18 27.41 87.87 25.25 87.59 23.54C87.23 21.3 87.11 20.06 87.2 19.2C87.3 18.2 87.27 17.96 87.02 17.88C86.85 17.82 86.65 17.79 86.57 17.8C86.49 17.81 85.72 17.91 84.86 18.01ZM116.94 19.19C117 19.7 116.91 20.48 116.7 21.19C116.5 21.84 115.96 23.68 115.48 25.29C115 26.9 114.34 29.06 114.01 30.08C113.63 31.25 113.38 32.51 113.32 33.5C113.27 34.38 113.32 35.36 113.45 35.74C113.56 36.12 113.92 36.82 114.23 37.3C114.68 38.01 115.11 38.34 116.34 38.95C117.67 39.62 118.05 39.72 119.24 39.73C120.34 39.73 120.79 39.64 121.58 39.23C122.12 38.95 122.84 38.4 123.19 38.01C123.54 37.62 123.99 36.98 124.2 36.57C124.4 36.17 124.85 34.92 125.19 33.79C125.54 32.66 126.15 30.64 126.55 29.3C126.96 27.95 127.5 26.16 127.76 25.3C128.01 24.45 128.47 23.35 128.77 22.86C129.07 22.37 129.29 21.96 129.26 21.95C129.23 21.94 129.02 21.84 128.81 21.72C128.59 21.61 127.74 21.33 126.9 21.11C126.07 20.89 125.28 20.7 125.15 20.7C124.98 20.7 124.94 20.86 125.03 21.24C125.1 21.53 125.09 22.13 125 22.56C124.91 22.99 124.58 24.22 124.25 25.29C123.93 26.37 123.4 28.17 123.07 29.3C122.73 30.42 122.27 31.96 122.05 32.71C121.82 33.47 121.42 34.57 121.16 35.16C120.86 35.86 120.5 36.35 120.12 36.57C119.79 36.76 119.31 36.91 119.04 36.91C118.77 36.91 118.27 36.8 117.92 36.66C117.57 36.51 117.08 36.14 116.84 35.83C116.55 35.46 116.4 35 116.4 34.52C116.4 34.12 116.76 32.62 117.19 31.2C117.62 29.78 118.37 27.25 118.86 25.59C119.35 23.92 119.9 22.16 120.07 21.68C120.24 21.2 120.56 20.56 120.78 20.26C121.05 19.91 121.12 19.66 121 19.54C120.89 19.44 120.1 19.13 119.24 18.86C118.38 18.58 117.49 18.35 117.26 18.36C116.88 18.36 116.85 18.44 116.94 19.19Z" />
		<path class="shp2" d="M103.04 19.57C102.73 19.82 102.26 20.48 102.01 21.04C101.77 21.61 101.42 22.88 101.24 23.88C101.05 24.91 100.91 26.73 100.9 28.13C100.9 29.92 100.99 30.88 101.25 31.74C101.44 32.38 101.77 33.2 101.97 33.54C102.21 33.96 102.58 34.25 103.03 34.38C103.4 34.48 103.91 34.52 104.15 34.45C104.39 34.38 104.8 34.14 105.05 33.91C105.3 33.68 105.67 33.14 105.88 32.71C106.09 32.29 106.44 31.05 106.66 29.98C107 28.35 107.05 27.53 106.98 25C106.9 22.29 106.84 21.86 106.4 20.9C106.13 20.31 105.75 19.69 105.56 19.53C105.36 19.37 104.84 19.21 104.41 19.18C103.82 19.14 103.46 19.25 103.04 19.57Z" />
		<path class="shp0" d="M134.87 25.15C134.8 25.55 134.43 26.54 134.05 27.34C133.67 28.15 132 31.53 130.34 34.86C128.68 38.19 127.06 41.18 126.75 41.5C126.43 41.83 126.18 42.16 126.17 42.24C126.17 42.32 126.96 42.78 127.93 43.26C128.9 43.75 129.8 44.14 129.93 44.14C130.08 44.14 130.22 43.77 130.3 43.22C130.38 42.56 131.47 40.15 133.96 35.11C136.2 30.56 137.75 27.66 138.18 27.2C138.55 26.79 138.86 26.4 138.86 26.32C138.86 26.24 138.08 25.78 137.11 25.29C136.14 24.81 135.27 24.41 135.17 24.41C135.08 24.41 134.94 24.74 134.87 25.15ZM62.55 25.3C61.98 25.46 61.19 25.75 60.79 25.96C60.39 26.16 59.63 26.71 59.11 27.18C58.56 27.68 57.92 28.51 57.58 29.2C57.01 30.35 57 30.41 57.07 33.01L57.14 35.64C59.34 40.12 59.8 40.8 61.07 42.16C62.25 43.42 62.91 43.94 63.96 44.46C65.14 45.04 65.53 45.13 66.75 45.12C67.66 45.12 68.53 44.98 69.19 44.74C69.75 44.53 70.79 43.91 71.48 43.36C72.18 42.81 72.95 42.32 73.19 42.27C73.5 42.21 73.6 42.08 73.54 41.85C73.48 41.66 72.7 40.1 71.78 38.38C70.46 35.88 70.12 35.09 70.12 34.42C70.12 33.76 70.05 33.59 69.78 33.6C69.59 33.6 68.77 33.96 67.97 34.4C67.16 34.85 66.39 35.31 66.26 35.43C66.06 35.6 66.17 35.77 66.74 36.24C67.22 36.63 67.85 37.53 68.51 38.78C69.08 39.85 69.54 40.88 69.54 41.06C69.53 41.25 69.25 41.6 68.9 41.84C68.5 42.11 67.97 42.26 67.48 42.26C67.05 42.25 66.33 42.06 65.87 41.83C65.41 41.6 64.68 41.08 64.23 40.67C63.79 40.27 63.07 39.41 62.63 38.77C62.2 38.13 61.49 36.85 61.06 35.94C60.4 34.52 60.28 34.03 60.2 32.62C60.14 31.7 60.16 30.72 60.23 30.42C60.3 30.12 60.68 29.53 61.08 29.09C61.5 28.63 62.11 28.22 62.5 28.11C62.88 28.01 63.54 27.93 63.96 27.94C64.39 27.94 65.12 28.11 65.58 28.32C66.03 28.54 66.41 28.62 66.41 28.52C66.41 28.41 66.2 27.9 65.95 27.39C65.69 26.88 65.31 26.16 65.1 25.78C64.81 25.27 64.57 25.09 64.14 25.06C63.83 25.03 63.11 25.14 62.55 25.3ZM143.46 31.6C143.03 31.8 142.3 32.4 141.83 32.93C141.28 33.55 140.88 34.26 140.68 34.96C140.46 35.75 140.41 36.48 140.49 37.7C140.56 38.61 140.79 39.97 141.01 40.72C141.23 41.47 141.47 42.66 141.53 43.36C141.61 44.12 141.57 44.92 141.43 45.36C141.29 45.84 140.99 46.23 140.58 46.48C140.23 46.7 139.74 46.87 139.5 46.87C139.26 46.87 138.71 46.7 138.28 46.48C137.85 46.27 137.29 45.81 137.03 45.46C136.77 45.11 136.37 44.17 136.13 43.36C135.73 41.99 135.68 41.92 135.42 42.29C135.26 42.5 134.79 43.16 134.36 43.75C133.9 44.39 133.59 45.04 133.59 45.36C133.59 45.75 133.93 46.25 134.81 47.18C135.64 48.05 136.44 48.67 137.3 49.09C138.23 49.54 138.92 49.72 139.84 49.78C140.89 49.84 141.3 49.76 142.19 49.36C142.84 49.06 143.49 48.57 143.84 48.11C144.16 47.7 144.58 46.95 144.77 46.44C144.97 45.9 145.12 44.99 145.12 44.29C145.12 43.62 144.89 42.06 144.61 40.82C144.34 39.58 144.06 38.09 144 37.5C143.94 36.91 143.99 36.1 144.12 35.69C144.24 35.28 144.61 34.74 144.97 34.46C145.5 34.04 145.73 33.98 146.39 34.09C146.97 34.18 147.4 34.45 148.06 35.12C148.55 35.63 149.01 36.3 149.07 36.62C149.14 36.94 149.24 37.54 149.3 37.94C149.36 38.34 149.5 38.67 149.61 38.67C149.72 38.67 150.14 38.21 150.54 37.65C150.95 37.08 151.42 36.4 151.58 36.13C151.86 35.69 151.86 35.58 151.59 35.06C151.43 34.74 150.81 33.99 150.21 33.39C149.61 32.79 148.68 32.1 148.14 31.84C147.45 31.5 146.75 31.35 145.7 31.3C144.58 31.25 144.05 31.32 143.46 31.6ZM46.82 35.7C46.09 36.42 45.49 37.08 45.5 37.16C45.5 37.24 45.71 37.38 45.95 37.48C46.19 37.57 47.05 38.3 47.85 39.1C48.66 39.9 50.26 41.58 51.42 42.84C52.57 44.09 53.52 45.16 53.52 45.21C53.52 45.27 53.38 45.31 53.22 45.31C53.06 45.31 52.78 45.23 52.59 45.12C52.4 45.02 50.51 44.09 48.39 43.07C46.27 42.05 44.47 41.21 44.38 41.22C44.3 41.22 43.86 40.96 43.41 40.63C42.95 40.31 42.47 40.04 42.33 40.05C42.2 40.05 41.43 40.68 40.63 41.44L39.16 42.81C39.92 43.29 41.19 44.49 42.48 45.8C43.77 47.11 46.41 49.89 48.34 51.97C50.27 54.05 52.08 56.17 52.34 56.67L52.83 57.58C55.03 55.64 55.66 54.95 55.66 54.79C55.66 54.62 55.38 54.35 55.03 54.17C54.68 53.99 53.96 53.39 53.43 52.85C52.9 52.3 51.98 51.33 51.39 50.68C50.81 50.04 49.59 48.74 48.7 47.8C47.8 46.86 47.07 46.05 47.07 46C47.07 45.94 47.18 45.9 47.31 45.9C47.45 45.9 48.35 46.29 49.32 46.76C50.28 47.23 52.57 48.34 54.39 49.23C56.43 50.22 57.9 51.07 58.2 51.41L58.69 51.98C59.75 51.15 60.48 50.51 60.99 50.01C61.5 49.52 61.92 49.01 61.92 48.88C61.92 48.74 61.72 48.59 61.47 48.54C61.23 48.48 60.11 47.49 58.98 46.33C57.86 45.18 55.88 43.09 54.6 41.69C53.32 40.3 51.65 38.52 50.89 37.74C50.13 36.96 49.29 35.91 49.02 35.41C48.75 34.92 48.45 34.48 48.34 34.44C48.23 34.41 47.55 34.97 46.82 35.7ZM156.34 38.96C156.26 39.29 155.97 39.99 155.7 40.53C155.44 41.06 153.94 43.39 152.38 45.7C150.81 48.01 149.09 50.56 148.54 51.37C147.99 52.17 147.17 53.34 146.72 53.96C146.27 54.57 145.72 55.17 145.51 55.27C145.29 55.38 145.12 55.56 145.12 55.66C145.12 55.77 145.5 56.28 145.97 56.79C146.45 57.3 147.02 57.93 147.24 58.2L147.66 58.69C148.34 57.9 148.93 57.42 149.41 57.12C149.9 56.82 150.56 56.43 150.88 56.25C151.2 56.07 152.08 55.59 152.83 55.18C153.58 54.77 154.29 54.37 154.39 54.29C154.5 54.21 155.25 53.8 156.05 53.36C156.86 52.93 158.57 51.99 159.86 51.28C161.15 50.56 162.65 49.76 163.18 49.5C163.72 49.23 164.54 48.95 164.99 48.87C165.45 48.79 165.8 48.67 165.77 48.6C165.75 48.53 165.06 47.75 164.26 46.88L162.79 45.29C162.01 46.29 161.13 46.98 160.33 47.46C159.54 47.94 158.66 48.46 158.38 48.63C158.1 48.79 156.98 49.45 155.88 50.1C154.78 50.74 153.47 51.51 152.96 51.81C152.46 52.11 151.94 52.42 151.8 52.5C151.67 52.57 151.52 52.57 151.46 52.49C151.41 52.41 151.83 51.66 152.39 50.83C152.96 50 153.78 48.83 154.22 48.24C154.66 47.65 155.71 46.21 156.56 45.04C157.41 43.87 158.39 42.68 158.74 42.4C159.09 42.12 159.37 41.81 159.37 41.7C159.36 41.59 158.71 40.8 157.92 39.94L156.48 38.38L156.34 38.96ZM98.89 45.65C98.45 46.27 97.7 47.52 97.22 48.44C96.63 49.55 96.24 50.61 96.03 51.66C95.86 52.52 95.67 53.66 95.61 54.2C95.54 54.81 95.63 55.99 95.87 57.32C96.08 58.51 96.52 60.26 96.85 61.23C97.18 62.2 97.67 64.04 97.93 65.33C98.2 66.62 98.51 68.36 98.62 69.19C98.74 70.02 98.83 70.97 98.83 71.29C98.83 71.73 98.75 71.86 98.49 71.83C98.29 71.8 98.11 71.52 98.02 71.09C97.94 70.72 97.75 69.62 97.6 68.65C97.44 67.69 97.07 66.28 96.77 65.53C96.48 64.78 95.92 63.68 95.54 63.09C95.17 62.5 94.39 61.57 93.83 61.04C93.26 60.5 92.22 59.75 91.5 59.38C90.26 58.72 90.13 58.69 88.12 58.69C86.14 58.69 85.97 58.73 84.77 59.34C84.07 59.7 83.15 60.36 82.73 60.8C82.31 61.25 81.72 62.15 81.42 62.79C81.12 63.44 80.82 64.36 80.75 64.84C80.67 65.4 80.75 66.18 80.95 66.99C81.13 67.69 81.51 68.65 81.8 69.13C82.09 69.6 82.68 70.28 83.11 70.64C83.54 71 84.33 71.45 84.86 71.62C85.43 71.81 86.42 71.94 87.21 71.94C88.21 71.93 88.81 71.81 89.45 71.49C89.94 71.25 90.49 70.9 90.69 70.73C90.89 70.55 91.19 70.15 91.36 69.82C91.53 69.5 91.67 68.75 91.67 68.16C91.68 67.52 91.55 66.84 91.35 66.46C91.17 66.11 90.73 65.65 90.38 65.44C90.03 65.22 89.39 65.05 88.96 65.04C88.54 65.04 87.96 65.18 87.7 65.36C87.43 65.54 87.1 65.82 86.96 66C86.8 66.2 86.66 66.24 86.54 66.11C86.44 66.01 86.41 65.65 86.48 65.33C86.55 65.01 86.91 64.43 87.3 64.03C87.81 63.51 88.22 63.28 88.87 63.18C89.41 63.09 90.16 63.14 90.82 63.3C91.7 63.51 92.1 63.75 92.99 64.64C93.61 65.26 94.36 66.27 94.72 66.99C95.07 67.69 95.53 68.94 95.73 69.78C95.99 70.86 96.04 71.4 95.9 71.68C95.79 71.89 95.44 72.11 95.12 72.17C94.79 72.22 94.48 72.38 94.41 72.51C94.34 72.64 94.34 73.04 94.41 73.39C94.51 73.9 94.69 74.09 95.33 74.37L96.14 74.71C95.93 76.22 95.65 77.08 95.39 77.59C95.13 78.1 94.57 78.87 94.14 79.3C93.69 79.74 93.05 80.16 92.63 80.27C92.22 80.37 91.87 80.41 91.85 80.36C91.82 80.31 91.88 80.1 91.99 79.88C92.1 79.67 92.19 79.23 92.19 78.91C92.19 78.58 92.03 78.06 91.85 77.74C91.66 77.42 91.31 77.07 91.06 76.96C90.82 76.85 90.27 76.76 89.84 76.76C89.41 76.76 88.86 76.85 88.62 76.96C88.38 77.07 87.99 77.45 87.74 77.79C87.5 78.14 87.25 78.73 87.18 79.1C87.11 79.5 87.17 80.19 87.33 80.74C87.5 81.37 87.83 81.91 88.28 82.32C88.66 82.66 89.32 83.05 89.75 83.19C90.2 83.34 90.93 83.41 91.5 83.35C92.04 83.29 92.88 83.06 93.36 82.83C93.84 82.61 94.55 82.14 94.94 81.79C95.32 81.44 95.9 80.76 96.22 80.27C96.54 79.79 96.95 79.04 97.13 78.61C97.32 78.18 97.58 77.17 97.72 76.37C97.93 75.08 98.01 74.9 98.39 74.85C98.76 74.81 98.83 74.9 98.83 75.39C98.83 75.71 98.73 76.61 98.62 77.39C98.5 78.17 98.16 79.6 97.86 80.57C97.57 81.53 97.08 82.81 96.78 83.4C96.4 84.14 96.23 84.77 96.23 85.45C96.23 86.14 96.38 86.71 96.74 87.4C97.03 87.94 97.82 88.97 98.49 89.69C99.16 90.41 99.84 91 100 91C100.16 91 100.84 90.41 101.51 89.69C102.18 88.97 102.97 87.94 103.26 87.4C103.62 86.71 103.77 86.14 103.77 85.45C103.77 84.76 103.59 84.13 103.18 83.3C102.85 82.66 102.36 81.34 102.08 80.37C101.8 79.4 101.48 78.04 101.37 77.34C101.26 76.65 101.17 75.79 101.17 75.44C101.17 74.9 101.24 74.81 101.61 74.85C101.99 74.9 102.07 75.09 102.3 76.46C102.47 77.46 102.8 78.49 103.23 79.3C103.59 80 104.27 80.96 104.74 81.45C105.21 81.93 106.02 82.53 106.56 82.78C107.09 83.03 107.92 83.29 108.4 83.35C108.95 83.41 109.64 83.33 110.25 83.14C110.81 82.96 111.5 82.54 111.84 82.18C112.18 81.83 112.56 81.19 112.7 80.76C112.83 80.33 112.89 79.63 112.82 79.2C112.76 78.77 112.5 78.14 112.26 77.79C112.02 77.45 111.62 77.07 111.38 76.96C111.14 76.85 110.59 76.76 110.16 76.76C109.73 76.76 109.18 76.85 108.94 76.96C108.69 77.07 108.34 77.42 108.15 77.74C107.97 78.06 107.81 78.58 107.81 78.91C107.81 79.23 107.9 79.67 108.01 79.88C108.12 80.1 108.18 80.31 108.15 80.36C108.13 80.41 107.78 80.37 107.37 80.27C106.94 80.15 106.31 79.74 105.82 79.25C105.37 78.79 104.8 77.98 104.56 77.44C104.31 76.9 104.06 76.07 103.99 75.59L103.86 74.71C105.35 74.07 105.49 73.92 105.59 73.29C105.69 72.71 105.64 72.51 105.35 72.31C105.14 72.18 104.83 72.07 104.64 72.07C104.45 72.07 104.21 71.89 104.1 71.68C103.97 71.43 103.97 70.96 104.09 70.36C104.19 69.85 104.4 69.08 104.55 68.65C104.7 68.22 105.07 67.39 105.37 66.8C105.67 66.21 106.41 65.23 107.01 64.63C107.73 63.9 108.37 63.45 108.89 63.31C109.32 63.19 110 63.09 110.4 63.09C110.8 63.09 111.42 63.2 111.77 63.34C112.12 63.48 112.64 63.9 112.92 64.27C113.21 64.64 113.5 65.18 113.56 65.48C113.62 65.79 113.58 66.08 113.45 66.16C113.32 66.25 113.16 66.16 113.06 65.97C112.97 65.78 112.63 65.49 112.3 65.33C111.98 65.17 111.39 65.04 110.99 65.05C110.58 65.05 109.97 65.22 109.62 65.44C109.27 65.65 108.83 66.11 108.65 66.46C108.45 66.84 108.32 67.52 108.33 68.16C108.33 68.75 108.47 69.5 108.64 69.82C108.81 70.15 109.11 70.56 109.31 70.74C109.51 70.92 110.11 71.26 110.64 71.5C111.32 71.8 112.01 71.94 112.89 71.94C113.65 71.94 114.58 71.79 115.21 71.57C115.79 71.36 116.63 70.87 117.07 70.49C117.51 70.1 118.11 69.31 118.41 68.73C118.7 68.15 119.04 67.15 119.16 66.5C119.35 65.52 119.34 65.13 119.06 64.06C118.88 63.36 118.43 62.35 118.07 61.82C117.71 61.28 117.12 60.59 116.77 60.28C116.41 59.98 115.63 59.5 115.04 59.22C114.09 58.77 113.72 58.71 111.88 58.7C109.86 58.69 109.74 58.72 108.48 59.38C107.75 59.75 106.71 60.5 106.15 61.04C105.59 61.57 104.83 62.5 104.45 63.09C104.08 63.68 103.52 64.78 103.23 65.53C102.93 66.28 102.56 67.69 102.4 68.65C102.25 69.62 102.06 70.72 101.98 71.09C101.89 71.52 101.71 71.8 101.51 71.83C101.25 71.86 101.17 71.73 101.17 71.29C101.17 70.97 101.26 70.02 101.38 69.19C101.49 68.36 101.81 66.58 102.09 65.23C102.36 63.89 102.85 62.05 103.17 61.13C103.49 60.22 103.92 58.51 104.13 57.32C104.37 55.99 104.46 54.81 104.39 54.2C104.33 53.66 104.14 52.52 103.97 51.66C103.76 50.61 103.37 49.55 102.78 48.44C102.3 47.52 101.54 46.27 101.1 45.65C100.66 45.03 100.15 44.53 99.98 44.53C99.81 44.53 99.32 45.04 98.89 45.65ZM90.92 47.96C90.17 48.1 88.32 48.53 86.82 48.91C85.31 49.28 83.6 49.78 83.01 50.01C82.42 50.23 81.49 50.58 80.96 50.77C80.42 50.97 79.23 51.46 78.32 51.86C77.41 52.26 76 52.95 75.2 53.38C74.39 53.81 73.38 54.39 72.95 54.67C72.52 54.95 71.95 55.29 71.68 55.43C71.41 55.56 70.18 56.42 68.95 57.34C67.71 58.25 65.79 59.81 64.68 60.8C63.57 61.79 61.84 63.52 60.83 64.65C59.82 65.78 58.25 67.71 57.33 68.95C56.42 70.18 55.56 71.41 55.43 71.68C55.29 71.95 54.95 72.52 54.67 72.95C54.39 73.38 53.81 74.39 53.38 75.2C52.95 76 52.26 77.41 51.86 78.32C51.46 79.23 50.97 80.42 50.77 80.96C50.58 81.49 50.23 82.42 50.01 83.01C49.78 83.6 49.28 85.31 48.91 86.82C48.53 88.32 48.09 90.25 47.94 91.11C47.78 91.97 47.65 93.03 47.65 93.46C47.65 94.21 47.66 94.23 48.19 94.11C48.49 94.03 48.97 93.88 49.27 93.76C49.56 93.65 49.84 93.44 49.88 93.31C49.92 93.18 50.2 91.79 50.5 90.23C50.79 88.68 51.29 86.61 51.59 85.64C51.9 84.68 52.29 83.45 52.47 82.91C52.64 82.37 52.95 81.54 53.17 81.05C53.39 80.57 54.02 79.21 54.58 78.03C55.14 76.85 56.19 74.91 56.92 73.73C57.64 72.55 58.51 71.2 58.85 70.74C59.19 70.28 60.13 69.09 60.93 68.1C61.73 67.12 63.31 65.38 64.44 64.25C65.58 63.11 67.27 61.58 68.2 60.83C69.13 60.08 70.27 59.19 70.74 58.85C71.2 58.51 72.55 57.64 73.73 56.92C74.91 56.2 76.71 55.2 77.73 54.71C78.75 54.21 80.07 53.6 80.66 53.35C81.25 53.1 82.05 52.77 82.42 52.63C82.8 52.49 84.12 52.06 85.35 51.68C86.59 51.29 88.04 50.9 88.57 50.81C89.11 50.72 90.34 50.49 91.31 50.3C92.28 50.11 93.18 49.92 93.31 49.88C93.44 49.84 93.69 49.48 93.85 49.07C94.02 48.67 94.15 48.19 94.15 48C94.14 47.72 93.97 47.66 93.21 47.68C92.7 47.69 91.67 47.82 90.92 47.96ZM105.85 48C105.85 48.19 105.98 48.67 106.15 49.07C106.31 49.48 106.56 49.84 106.69 49.88C106.82 49.92 107.72 50.11 108.69 50.3C109.66 50.49 110.89 50.72 111.43 50.81C111.96 50.9 113.41 51.29 114.65 51.68C115.88 52.06 117.2 52.49 117.58 52.63C117.95 52.77 118.75 53.1 119.34 53.35C119.93 53.6 121.25 54.21 122.27 54.71C123.29 55.2 125.09 56.2 126.27 56.92C127.45 57.64 128.8 58.51 129.26 58.85C129.73 59.19 130.87 60.08 131.8 60.82C132.73 61.57 134.47 63.15 135.66 64.34C136.85 65.53 138.43 67.27 139.17 68.21C139.92 69.14 140.81 70.28 141.15 70.74C141.49 71.2 142.36 72.55 143.08 73.73C143.81 74.91 144.86 76.85 145.42 78.03C145.98 79.21 146.61 80.57 146.83 81.05C147.05 81.54 147.36 82.37 147.53 82.91C147.71 83.45 148.1 84.68 148.41 85.64C148.71 86.61 149.21 88.68 149.5 90.23C149.8 91.79 150.08 93.18 150.12 93.31C150.16 93.44 150.52 93.69 150.93 93.85C151.33 94.02 151.81 94.15 152 94.15C152.27 94.14 152.34 93.97 152.34 93.41C152.34 93.01 152.22 91.97 152.06 91.11C151.91 90.25 151.47 88.32 151.09 86.82C150.72 85.31 150.22 83.6 149.99 83.01C149.77 82.42 149.42 81.49 149.23 80.96C149.03 80.42 148.54 79.23 148.14 78.32C147.74 77.41 147.05 76 146.62 75.2C146.19 74.39 145.61 73.38 145.33 72.95C145.05 72.52 144.71 71.95 144.57 71.68C144.44 71.41 143.58 70.18 142.67 68.95C141.75 67.71 140.18 65.78 139.17 64.65C138.16 63.52 136.43 61.79 135.32 60.8C134.21 59.81 132.29 58.25 131.05 57.34C129.82 56.42 128.59 55.56 128.32 55.43C128.05 55.29 127.48 54.95 127.05 54.67C126.62 54.39 125.65 53.83 124.9 53.43C124.15 53.02 122.66 52.3 121.58 51.82C120.51 51.34 119.28 50.83 118.85 50.68C118.42 50.54 117.58 50.24 116.99 50.01C116.4 49.78 114.69 49.28 113.18 48.91C111.68 48.53 109.75 48.09 108.89 47.94C108.03 47.78 106.99 47.66 106.59 47.66C106.03 47.66 105.86 47.73 105.85 48ZM32.84 50.55C32.18 51.45 31.64 52.26 31.64 52.36C31.64 52.46 32.1 52.75 32.67 53.02C33.23 53.28 34.2 53.87 34.82 54.34C35.44 54.8 38.12 56.76 40.77 58.69C43.43 60.62 46.08 62.69 46.65 63.28L47.69 64.36C48.35 63.56 48.86 62.88 49.27 62.33C49.67 61.78 50 61.17 50 60.99C50.01 60.76 49.79 60.59 49.37 60.49C49.02 60.4 48.47 60.14 48.14 59.92C47.82 59.69 46.9 59.02 46.09 58.43C45.29 57.84 44.23 57.07 43.75 56.72C43.27 56.36 41.93 55.39 40.78 54.55C39.63 53.71 37.97 52.5 37.1 51.86C36.22 51.21 35.17 50.29 34.77 49.8L34.04 48.93L32.84 50.55ZM167.58 53.64C167.09 54.14 166.57 54.6 166.41 54.67C166.25 54.73 164.53 55.83 162.6 57.11C160.66 58.39 157.85 60.25 156.35 61.23C154.84 62.22 153.22 63.16 152.73 63.32C152.25 63.48 151.86 63.67 151.86 63.75C151.86 63.83 152.34 64.6 152.93 65.47C153.52 66.34 154.07 67.08 154.15 67.12C154.23 67.16 154.59 66.86 154.95 66.46C155.31 66.05 156.08 65.42 156.66 65.05C157.24 64.68 160.13 62.78 163.09 60.83C166.04 58.89 168.74 57.15 169.09 56.97C169.44 56.79 169.88 56.64 170.07 56.65C170.26 56.65 170.52 56.54 170.65 56.41C170.85 56.2 170.69 55.82 169.82 54.44C169.23 53.5 168.68 52.74 168.6 52.74C168.52 52.74 168.06 53.15 167.58 53.64ZM26.86 59.62C26.47 60.08 25.97 60.93 25.73 61.52C25.42 62.32 25.31 63.03 25.3 64.26C25.29 65.75 25.36 66.06 25.91 67.19C26.25 67.89 26.96 68.91 27.47 69.46C27.99 70 28.86 70.76 29.39 71.13C29.93 71.5 31.03 72.12 31.84 72.5C32.64 72.89 33.96 73.4 34.77 73.65C35.83 73.97 36.71 74.09 37.99 74.09C39.26 74.09 40 73.98 40.66 73.71C41.16 73.51 41.95 73.07 42.42 72.75C42.91 72.4 43.52 71.72 43.88 71.09C44.21 70.5 44.62 69.45 44.79 68.75C45.07 67.58 45.06 67.46 44.76 67.16C44.58 66.98 43.77 66.52 42.97 66.14C42.16 65.75 41.48 65.52 41.46 65.63C41.43 65.73 41.58 66.17 41.8 66.6C42.01 67.03 42.19 67.6 42.19 67.87C42.19 68.14 42.05 68.65 41.89 68.99C41.72 69.34 41.22 69.87 40.76 70.17C40.31 70.46 39.55 70.76 39.06 70.82C38.58 70.89 37.79 70.88 37.3 70.81C36.82 70.73 35.63 70.36 34.67 69.99C33.7 69.61 32.34 68.93 31.64 68.46C30.94 68 30.01 67.29 29.57 66.87C29.13 66.45 28.58 65.76 28.35 65.33C28.11 64.89 27.93 64.21 27.94 63.77C27.94 63.33 28.13 62.67 28.38 62.25C28.61 61.84 29.07 61.39 29.39 61.23C29.72 61.08 30.27 60.89 30.61 60.8C30.96 60.71 31.18 60.58 31.1 60.51C31.02 60.43 30.28 60.02 29.44 59.58C28.61 59.15 27.85 58.79 27.75 58.79C27.65 58.79 27.25 59.16 26.86 59.62ZM173.79 63.61C173.29 64.02 172.55 64.48 172.14 64.62C171.72 64.77 170.73 65.19 169.92 65.54C169.12 65.9 167.09 66.78 165.43 67.5C163.76 68.22 161.39 69.24 160.16 69.76C158.78 70.34 157.63 70.71 157.18 70.71C156.72 70.71 156.45 70.79 156.45 70.95C156.45 71.08 156.7 71.81 157.01 72.56C157.32 73.31 157.9 74.67 158.29 75.59C158.68 76.5 159.24 77.75 159.53 78.37C159.84 79.03 160.18 79.5 160.35 79.49C160.51 79.49 161.22 79.26 161.91 78.98C162.61 78.71 163.4 78.32 163.67 78.12L164.16 77.75C163.1 77.52 162.53 77.19 162.21 76.86C161.88 76.54 161.37 75.7 161.06 75C160.75 74.3 160.54 73.6 160.6 73.44C160.65 73.28 161.96 72.62 163.5 71.99C165.05 71.35 166.92 70.54 167.68 70.2C168.43 69.85 170.3 69.03 171.83 68.38C173.36 67.72 175.01 67.12 175.49 67.04C175.98 66.96 176.37 66.85 176.37 66.8C176.37 66.74 176.12 66.08 175.82 65.33C175.51 64.58 175.13 63.72 174.98 63.41L174.7 62.87L173.79 63.61ZM67.39 67.47C67.39 67.53 67.93 68.22 68.6 68.99C69.26 69.77 69.86 70.45 69.93 70.51C69.99 70.56 70.65 71.31 71.39 72.17C72.13 73.03 73.58 74.65 74.6 75.77C75.63 76.89 77.17 78.56 78.04 79.48C78.91 80.4 80.27 81.85 81.07 82.71C81.87 83.56 83.62 85.41 84.96 86.8C86.3 88.2 88.81 90.8 90.53 92.57C92.24 94.35 94.55 96.7 95.65 97.8C96.75 98.9 97.66 99.89 97.66 100C97.66 100.11 96.75 101.1 95.65 102.2C94.55 103.3 92.24 105.65 90.53 107.43C88.81 109.2 86.3 111.8 84.96 113.19C83.62 114.59 81.82 116.47 80.97 117.38C80.12 118.3 78.76 119.75 77.94 120.62C77.13 121.48 75.63 123.11 74.6 124.23C73.58 125.35 72.13 126.97 71.39 127.83C70.65 128.69 69.94 129.48 69.82 129.59C69.7 129.7 69.16 130.31 68.63 130.96C68.09 131.6 67.59 132.24 67.51 132.37C67.42 132.55 67.47 132.57 67.72 132.43C67.91 132.33 69.39 131.08 71.01 129.65C72.64 128.22 74.83 126.26 75.89 125.29C76.95 124.33 78.57 122.83 79.49 121.96C80.4 121.09 81.86 119.73 82.71 118.93C83.57 118.13 85.42 116.38 86.81 115.04C88.2 113.7 90.8 111.19 92.57 109.47C94.35 107.76 96.7 105.45 97.8 104.35C98.9 103.25 99.89 102.34 100 102.34C100.11 102.34 101.1 103.25 102.2 104.35C103.3 105.45 105.65 107.76 107.43 109.47C109.2 111.19 111.8 113.7 113.19 115.04C114.58 116.38 116.47 118.19 117.39 119.04C118.31 119.9 120.07 121.54 121.3 122.68C122.53 123.82 124.24 125.4 125.11 126.19C125.97 126.99 127.89 128.69 129.37 129.98C130.85 131.27 132.21 132.41 132.39 132.51C132.65 132.67 132.68 132.65 132.53 132.42C132.44 132.26 131.91 131.6 131.37 130.96C130.84 130.31 130.3 129.7 130.18 129.59C130.06 129.48 129.35 128.69 128.61 127.83C127.87 126.97 126.42 125.35 125.4 124.23C124.37 123.11 122.83 121.44 121.96 120.52C121.09 119.6 119.73 118.14 118.93 117.29C118.13 116.43 116.38 114.58 115.04 113.19C113.7 111.8 111.19 109.2 109.47 107.43C107.76 105.65 105.45 103.3 104.35 102.2C103.25 101.1 102.34 100.11 102.34 100C102.34 99.89 103.25 98.9 104.35 97.8C105.45 96.7 107.76 94.35 109.47 92.57C111.19 90.8 113.7 88.2 115.04 86.8C116.38 85.41 118.13 83.56 118.93 82.71C119.73 81.85 121.09 80.4 121.96 79.48C122.83 78.56 124.37 76.89 125.4 75.77C126.42 74.65 127.87 73.03 128.61 72.17C129.35 71.31 130.01 70.56 130.07 70.51C130.14 70.45 130.74 69.77 131.4 68.99C132.07 68.22 132.62 67.53 132.62 67.48C132.62 67.43 132.46 67.47 132.28 67.57C132.09 67.67 130.61 68.92 128.99 70.35C127.36 71.78 125.17 73.74 124.11 74.71C123.05 75.67 121.43 77.17 120.51 78.04C119.6 78.91 118.14 80.27 117.29 81.07C116.43 81.87 114.58 83.62 113.19 84.96C111.8 86.3 109.2 88.81 107.43 90.53C105.65 92.24 103.31 94.55 102.22 95.65C101.13 96.75 100.15 97.66 100.02 97.66C99.9 97.66 98.9 96.75 97.8 95.65C96.7 94.55 94.35 92.24 92.57 90.53C90.8 88.81 88.2 86.3 86.81 84.96C85.42 83.62 83.57 81.87 82.71 81.07C81.86 80.27 80.4 78.91 79.49 78.04C78.57 77.17 76.95 75.67 75.89 74.71C74.83 73.74 72.64 71.78 71.01 70.35C69.39 68.92 67.92 67.67 67.74 67.56C67.55 67.46 67.4 67.42 67.39 67.47ZM19.8 77.39C19.72 77.53 19.5 78.32 19.3 79.15C19.11 79.98 18.95 80.75 18.95 80.86C18.95 80.97 19.27 81.11 19.68 81.17C20.08 81.23 21.42 81.81 22.66 82.47C23.89 83.12 25.56 84 26.37 84.43C27.17 84.86 28.36 85.49 29 85.84C29.65 86.19 30.88 86.85 31.74 87.3C32.6 87.76 33.83 88.42 34.47 88.78C35.12 89.14 35.91 89.7 36.23 90.03C36.55 90.36 36.88 90.63 36.96 90.63C37.04 90.63 37.33 89.9 37.59 89.01C37.86 88.13 38.08 87.2 38.08 86.96C38.09 86.62 37.98 86.52 37.6 86.52C37.33 86.52 36.49 86.22 35.74 85.84C34.73 85.34 34.38 85.05 34.38 84.77C34.38 84.55 34.5 84 34.65 83.54C34.8 83.09 34.97 82.45 35.04 82.13C35.1 81.81 35.29 81.41 35.47 81.25C35.73 81.02 36.07 80.99 37.18 81.1C38.09 81.2 38.69 81.37 38.92 81.59C39.11 81.78 39.3 81.89 39.35 81.84C39.41 81.78 39.67 80.86 39.94 79.79C40.21 78.71 40.43 77.72 40.43 77.59C40.43 77.4 40.24 77.41 39.6 77.64C38.92 77.88 37.64 77.93 32.42 77.92C28.93 77.91 24.87 77.85 23.4 77.77C21.67 77.68 20.64 77.55 20.47 77.39C20.33 77.25 20.15 77.14 20.08 77.15C20 77.15 19.88 77.26 19.8 77.39ZM179.77 78.5C179.69 78.61 179.04 78.87 178.33 79.07C177.63 79.28 175.95 79.69 174.61 79.97C173.27 80.26 170.67 80.84 168.85 81.25C167.02 81.66 164.87 82.13 164.06 82.3C163.16 82.48 162.28 82.54 161.76 82.46C161.16 82.36 160.93 82.39 160.93 82.57C160.94 82.7 161.1 83.54 161.31 84.42C161.51 85.31 161.93 87.21 162.23 88.66C162.54 90.1 162.88 91.39 162.99 91.52C163.14 91.71 163.51 91.7 164.75 91.49C165.61 91.34 166.51 91.17 166.75 91.12C167.16 91.02 167.11 90.94 166.15 89.99C165.22 89.07 165.08 88.83 164.86 87.7C164.72 87 164.56 86.34 164.51 86.23C164.47 86.12 164.54 85.9 164.68 85.73C164.83 85.57 165.38 85.37 165.92 85.28C166.46 85.2 168.39 84.79 170.21 84.38C172.04 83.96 174.94 83.31 176.66 82.93C178.93 82.43 179.99 82.28 180.52 82.38L181.26 82.52C181.24 81.46 181.08 80.54 180.89 79.79C180.66 78.89 180.43 78.4 180.24 78.36C180.07 78.33 179.86 78.39 179.77 78.5Z" />
		<path class="shp2" d="M26.27 80.6C26.06 80.65 25.9 80.77 25.93 80.87C25.96 80.97 27.12 81.63 28.52 82.32C29.91 83.02 31.19 83.59 31.35 83.59C31.52 83.59 31.72 83.3 31.83 82.86C31.94 82.46 32.03 81.85 32.02 81.51L32.01 80.9C29.08 80.71 27.87 80.62 27.44 80.58C27.01 80.54 26.49 80.55 26.27 80.6Z" />
		<path class="shp0" d="M63.87 80.98C63.28 81.14 62.4 81.52 61.91 81.83C61.43 82.14 60.74 82.72 60.38 83.14C60.02 83.55 59.49 84.37 59.21 84.96C58.76 85.91 58.7 86.28 58.7 88.18C58.69 90.27 58.71 90.37 59.35 91.5C59.72 92.15 60.25 92.98 60.55 93.36C60.84 93.74 61.55 94.41 62.13 94.86C62.71 95.31 63.62 95.89 64.16 96.16C64.7 96.43 65.66 96.83 66.31 97.05C66.95 97.27 68.4 97.59 69.53 97.76C70.66 97.93 71.65 98.11 71.73 98.16C71.81 98.2 71.88 98.37 71.88 98.54C71.88 98.73 71.68 98.83 71.29 98.83C70.97 98.83 70.02 98.74 69.19 98.62C68.36 98.51 66.58 98.19 65.23 97.91C63.89 97.64 62.05 97.15 61.13 96.83C60.22 96.51 58.51 96.08 57.32 95.87C55.97 95.63 54.81 95.54 54.2 95.61C53.66 95.68 52.52 95.87 51.66 96.04C50.61 96.24 49.55 96.63 48.44 97.22C47.52 97.7 46.27 98.46 45.65 98.9C45.03 99.34 44.52 99.84 44.52 100C44.52 100.16 45.24 100.79 46.13 101.39C47.02 101.99 48.33 102.75 49.02 103.09C49.72 103.42 50.95 103.82 51.76 103.98C52.56 104.14 53.66 104.32 54.2 104.39C54.81 104.46 55.97 104.37 57.32 104.13C58.51 103.92 60.22 103.49 61.13 103.17C62.05 102.85 63.89 102.36 65.23 102.09C66.58 101.81 68.36 101.49 69.19 101.38C70.02 101.26 70.97 101.17 71.29 101.17C71.68 101.17 71.88 101.27 71.88 101.46C71.88 101.63 71.81 101.8 71.73 101.84C71.65 101.89 70.66 102.07 69.53 102.24C68.4 102.41 66.95 102.73 66.31 102.95C65.66 103.17 64.7 103.57 64.16 103.84C63.62 104.11 62.76 104.65 62.25 105.05C61.74 105.44 61.03 106.11 60.67 106.54C60.32 106.97 59.73 107.85 59.36 108.5C58.72 109.63 58.7 109.73 58.69 111.82C58.69 113.82 58.73 114.05 59.28 115.13C59.6 115.77 60.24 116.67 60.69 117.13C61.15 117.59 62.07 118.23 62.74 118.55C63.42 118.87 64.36 119.18 64.84 119.25C65.4 119.33 66.18 119.25 66.99 119.05C67.69 118.87 68.65 118.49 69.13 118.2C69.6 117.91 70.28 117.32 70.64 116.89C71 116.46 71.45 115.67 71.62 115.14C71.81 114.57 71.94 113.58 71.94 112.79C71.93 111.73 71.81 111.2 71.41 110.4C71.13 109.84 70.66 109.21 70.36 109.01C70.07 108.8 69.43 108.53 68.95 108.41C68.46 108.28 67.8 108.24 67.48 108.31C67.16 108.39 66.65 108.57 66.36 108.71C66.06 108.86 65.65 109.27 65.44 109.62C65.22 109.97 65.05 110.61 65.04 111.04C65.04 111.46 65.18 112.04 65.36 112.3C65.54 112.57 65.82 112.9 66 113.04C66.2 113.2 66.24 113.34 66.11 113.46C66.01 113.56 65.65 113.59 65.33 113.52C65.01 113.45 64.43 113.09 64.03 112.7C63.51 112.19 63.28 111.78 63.18 111.13C63.09 110.59 63.14 109.84 63.3 109.18C63.51 108.31 63.76 107.9 64.64 107C65.37 106.26 66.21 105.67 67.19 105.2C67.99 104.81 69.27 104.37 70.02 104.21C70.91 104.03 71.51 103.99 71.73 104.11C71.92 104.21 72.11 104.56 72.17 104.88C72.22 105.21 72.38 105.52 72.51 105.59C72.64 105.66 73.04 105.66 73.39 105.59C73.9 105.49 74.09 105.31 74.37 104.66L74.71 103.86C76.07 104.06 76.9 104.31 77.44 104.56C77.98 104.8 78.79 105.37 79.25 105.82C79.74 106.31 80.15 106.94 80.27 107.37C80.37 107.78 80.41 108.13 80.36 108.15C80.31 108.18 80.1 108.12 79.88 108.01C79.67 107.9 79.23 107.81 78.91 107.81C78.58 107.81 78.06 107.97 77.74 108.15C77.42 108.34 77.07 108.69 76.96 108.94C76.85 109.18 76.76 109.73 76.76 110.16C76.76 110.59 76.85 111.14 76.96 111.38C77.07 111.62 77.45 112.01 77.79 112.26C78.14 112.5 78.73 112.75 79.1 112.82C79.5 112.89 80.19 112.83 80.74 112.67C81.37 112.5 81.91 112.17 82.32 111.72C82.66 111.34 83.05 110.68 83.19 110.25C83.34 109.8 83.41 109.07 83.35 108.5C83.29 107.96 83.06 107.12 82.83 106.64C82.61 106.16 82.14 105.45 81.79 105.06C81.44 104.68 80.76 104.1 80.27 103.78C79.79 103.46 79.04 103.05 78.61 102.87C78.18 102.68 77.17 102.42 76.37 102.28C75.08 102.07 74.9 101.99 74.85 101.61C74.81 101.24 74.9 101.17 75.39 101.17C75.71 101.17 76.61 101.27 77.39 101.38C78.17 101.5 79.6 101.84 80.57 102.14C81.53 102.43 82.81 102.92 83.4 103.22C84.15 103.6 84.77 103.77 85.45 103.77C86.11 103.77 86.74 103.61 87.4 103.27C87.94 102.99 88.97 102.21 89.69 101.53C90.41 100.85 91 100.16 91 100C91 99.84 90.41 99.15 89.69 98.47C88.97 97.79 87.94 97.01 87.4 96.73C86.74 96.39 86.11 96.23 85.45 96.23C84.75 96.23 84.14 96.4 83.3 96.82C82.66 97.15 81.34 97.64 80.37 97.92C79.4 98.2 78.04 98.52 77.34 98.63C76.65 98.74 75.79 98.83 75.44 98.83C74.9 98.83 74.81 98.76 74.85 98.39C74.9 98.01 75.09 97.93 76.46 97.7C77.46 97.53 78.49 97.2 79.3 96.77C80 96.41 80.96 95.73 81.45 95.26C81.93 94.79 82.53 93.98 82.78 93.44C83.03 92.91 83.29 92.08 83.34 91.6C83.4 91.12 83.34 90.35 83.22 89.89C83.11 89.44 82.71 88.73 82.35 88.33C81.91 87.83 81.39 87.51 80.74 87.33C80.19 87.17 79.5 87.11 79.1 87.18C78.73 87.25 78.14 87.5 77.79 87.74C77.45 87.99 77.07 88.38 76.96 88.62C76.85 88.86 76.76 89.41 76.76 89.84C76.76 90.27 76.85 90.82 76.96 91.06C77.07 91.31 77.42 91.66 77.74 91.85C78.06 92.03 78.58 92.19 78.91 92.19C79.23 92.19 79.67 92.1 79.88 91.99C80.1 91.88 80.31 91.82 80.36 91.85C80.41 91.87 80.37 92.22 80.27 92.63C80.15 93.06 79.74 93.69 79.25 94.18C78.79 94.63 77.98 95.2 77.44 95.44C76.9 95.69 76.07 95.94 75.59 96.01L74.71 96.14C74.07 94.65 73.92 94.51 73.29 94.41C72.71 94.31 72.51 94.36 72.31 94.65C72.18 94.86 72.07 95.17 72.07 95.36C72.07 95.55 71.92 95.79 71.73 95.89C71.51 96.01 70.91 95.97 70.02 95.79C69.27 95.63 68.02 95.2 67.24 94.82C66.35 94.4 65.39 93.72 64.67 93.02C63.87 92.24 63.45 91.65 63.3 91.11C63.18 90.68 63.09 90 63.09 89.6C63.09 89.2 63.2 88.58 63.34 88.23C63.48 87.88 63.9 87.36 64.27 87.08C64.64 86.79 65.18 86.5 65.48 86.44C65.77 86.38 66.06 86.42 66.11 86.52C66.17 86.63 65.95 86.98 65.63 87.3C65.14 87.79 65.04 88.04 65.05 88.82C65.05 89.39 65.2 89.99 65.44 90.38C65.65 90.73 66.06 91.14 66.36 91.29C66.65 91.43 67.16 91.61 67.48 91.69C67.8 91.76 68.46 91.72 68.95 91.59C69.43 91.47 70.08 91.18 70.4 90.95C70.72 90.72 71.19 90.04 71.46 89.45C71.81 88.68 71.94 88.03 71.95 87.11C71.95 86.32 71.81 85.44 71.57 84.79C71.36 84.21 70.92 83.42 70.59 83.03C70.26 82.64 69.6 82.09 69.13 81.8C68.65 81.51 67.73 81.14 67.09 80.97C66.45 80.8 65.7 80.67 65.43 80.68C65.16 80.68 64.46 80.82 63.87 80.98ZM132.81 80.97C132.22 81.14 131.35 81.51 130.87 81.8C130.4 82.09 129.72 82.68 129.36 83.11C129 83.54 128.55 84.33 128.38 84.86C128.19 85.43 128.06 86.42 128.06 87.21C128.07 88.27 128.19 88.8 128.59 89.6C128.87 90.16 129.34 90.79 129.64 90.99C129.93 91.2 130.57 91.47 131.05 91.59C131.54 91.72 132.2 91.76 132.52 91.69C132.84 91.61 133.35 91.43 133.64 91.29C133.94 91.14 134.35 90.73 134.56 90.38C134.78 90.03 134.95 89.39 134.96 88.96C134.96 88.54 134.82 87.96 134.64 87.7C134.46 87.43 134.18 87.1 134 86.96C133.8 86.8 133.76 86.66 133.89 86.54C133.99 86.44 134.35 86.41 134.67 86.48C134.99 86.55 135.57 86.91 135.97 87.3C136.49 87.81 136.72 88.22 136.82 88.87C136.91 89.41 136.86 90.16 136.7 90.82C136.49 91.69 136.24 92.1 135.36 93C134.63 93.74 133.79 94.33 132.81 94.8C132.01 95.19 130.73 95.63 129.98 95.79C129.09 95.97 128.49 96.01 128.27 95.89C128.08 95.79 127.89 95.44 127.83 95.12C127.78 94.79 127.62 94.48 127.49 94.41C127.36 94.34 126.96 94.34 126.61 94.41C126.1 94.51 125.91 94.69 125.63 95.34L125.29 96.14C123.93 95.94 123.1 95.69 122.56 95.44C122.02 95.2 121.21 94.63 120.75 94.18C120.26 93.69 119.85 93.06 119.73 92.63C119.63 92.22 119.59 91.87 119.64 91.85C119.69 91.82 119.9 91.88 120.12 91.99C120.33 92.1 120.77 92.19 121.09 92.19C121.42 92.19 121.94 92.03 122.26 91.85C122.58 91.66 122.93 91.31 123.04 91.06C123.15 90.82 123.24 90.27 123.24 89.84C123.24 89.41 123.15 88.86 123.04 88.62C122.93 88.38 122.55 87.99 122.21 87.74C121.86 87.5 121.27 87.25 120.9 87.18C120.5 87.11 119.81 87.17 119.26 87.33C118.63 87.5 118.09 87.83 117.68 88.28C117.34 88.66 116.95 89.32 116.81 89.75C116.66 90.2 116.59 90.93 116.65 91.5C116.71 92.04 116.94 92.88 117.17 93.36C117.39 93.84 117.86 94.55 118.21 94.94C118.56 95.32 119.24 95.9 119.73 96.22C120.21 96.54 120.96 96.95 121.39 97.13C121.82 97.32 122.83 97.58 123.63 97.72C124.92 97.93 125.1 98.01 125.15 98.39C125.19 98.76 125.1 98.83 124.61 98.83C124.29 98.83 123.39 98.73 122.61 98.62C121.83 98.5 120.4 98.16 119.43 97.86C118.47 97.57 117.19 97.08 116.6 96.78C115.85 96.4 115.23 96.23 114.55 96.23C113.89 96.23 113.26 96.39 112.6 96.73C112.06 97.01 111.03 97.79 110.31 98.47C109.59 99.15 109 99.84 109 100C109 100.16 109.59 100.85 110.31 101.53C111.03 102.21 112.06 102.99 112.6 103.27C113.26 103.61 113.89 103.77 114.55 103.77C115.25 103.77 115.86 103.6 116.7 103.18C117.34 102.85 118.66 102.36 119.63 102.08C120.6 101.8 121.96 101.48 122.66 101.37C123.35 101.26 124.21 101.17 124.56 101.17C125.1 101.17 125.19 101.24 125.15 101.61C125.1 101.99 124.91 102.07 123.54 102.3C122.54 102.47 121.51 102.8 120.7 103.23C120 103.59 119.04 104.27 118.55 104.74C118.07 105.21 117.47 106.02 117.22 106.56C116.97 107.09 116.71 107.92 116.65 108.4C116.59 108.95 116.67 109.64 116.86 110.25C117.04 110.81 117.46 111.5 117.82 111.84C118.17 112.18 118.81 112.56 119.24 112.7C119.67 112.83 120.37 112.89 120.8 112.82C121.23 112.76 121.86 112.5 122.21 112.26C122.55 112.02 122.93 111.62 123.04 111.38C123.15 111.14 123.24 110.59 123.24 110.16C123.24 109.73 123.15 109.18 123.04 108.94C122.93 108.69 122.58 108.34 122.26 108.15C121.94 107.97 121.42 107.81 121.09 107.81C120.77 107.81 120.33 107.9 120.12 108.01C119.9 108.12 119.69 108.18 119.64 108.15C119.59 108.13 119.63 107.78 119.73 107.37C119.85 106.94 120.26 106.31 120.75 105.82C121.21 105.37 122.02 104.8 122.56 104.56C123.1 104.31 123.93 104.06 124.41 103.99L125.29 103.86C125.93 105.35 126.08 105.49 126.71 105.59C127.29 105.69 127.49 105.64 127.69 105.35C127.82 105.14 127.93 104.83 127.93 104.64C127.93 104.45 128.08 104.21 128.27 104.11C128.49 103.99 129.09 104.03 129.98 104.21C130.73 104.37 131.98 104.8 132.76 105.18C133.65 105.6 134.61 106.28 135.33 106.98C136.13 107.76 136.55 108.35 136.7 108.89C136.82 109.32 136.91 110 136.91 110.4C136.91 110.8 136.8 111.42 136.66 111.77C136.52 112.12 136.1 112.64 135.73 112.92C135.36 113.21 134.82 113.5 134.52 113.56C134.23 113.62 133.94 113.58 133.89 113.48C133.83 113.37 134.05 113.02 134.38 112.7C134.86 112.21 134.96 111.96 134.95 111.18C134.95 110.61 134.8 110.01 134.56 109.62C134.35 109.27 133.94 108.86 133.64 108.71C133.35 108.57 132.84 108.39 132.52 108.31C132.2 108.24 131.54 108.28 131.05 108.41C130.57 108.53 129.92 108.82 129.6 109.05C129.28 109.28 128.81 109.96 128.54 110.55C128.19 111.32 128.06 111.97 128.05 112.89C128.05 113.68 128.19 114.56 128.43 115.21C128.64 115.79 129.08 116.58 129.41 116.97C129.74 117.36 130.42 117.92 130.92 118.21C131.43 118.51 132.39 118.89 133.06 119.07C134.08 119.34 134.47 119.35 135.45 119.16C136.09 119.04 137.01 118.74 137.49 118.5C137.97 118.26 138.77 117.67 139.28 117.19C139.78 116.7 140.44 115.78 140.74 115.14C141.25 114.07 141.3 113.77 141.3 111.82C141.31 109.73 141.29 109.63 140.65 108.5C140.28 107.85 139.75 107.02 139.45 106.64C139.16 106.26 138.45 105.59 137.87 105.14C137.29 104.69 136.38 104.11 135.84 103.84C135.3 103.57 134.34 103.17 133.69 102.95C133.05 102.73 131.6 102.41 130.47 102.24C129.34 102.07 128.35 101.89 128.27 101.84C128.19 101.8 128.13 101.63 128.13 101.46C128.13 101.27 128.32 101.17 128.71 101.17C129.03 101.17 129.98 101.26 130.81 101.38C131.64 101.49 133.42 101.81 134.77 102.09C136.11 102.36 137.95 102.85 138.87 103.17C139.78 103.49 141.49 103.92 142.68 104.13C144.03 104.37 145.19 104.46 145.8 104.39C146.34 104.32 147.48 104.13 148.34 103.96C149.39 103.76 150.45 103.37 151.56 102.78C152.48 102.3 153.73 101.54 154.35 101.1C154.97 100.66 155.48 100.16 155.48 100C155.48 99.84 154.97 99.34 154.35 98.9C153.73 98.46 152.48 97.7 151.56 97.22C150.45 96.63 149.39 96.24 148.34 96.04C147.48 95.87 146.34 95.68 145.8 95.61C145.19 95.54 144.03 95.63 142.68 95.87C141.49 96.08 139.78 96.51 138.87 96.83C137.95 97.15 136.11 97.64 134.77 97.91C133.42 98.19 131.64 98.51 130.81 98.62C129.98 98.74 129.03 98.83 128.71 98.83C128.32 98.83 128.13 98.73 128.13 98.54C128.13 98.37 128.19 98.2 128.27 98.16C128.35 98.11 129.34 97.93 130.47 97.76C131.6 97.59 133.05 97.27 133.69 97.05C134.34 96.83 135.3 96.43 135.84 96.16C136.38 95.89 137.24 95.35 137.75 94.95C138.26 94.56 138.97 93.89 139.33 93.46C139.68 93.03 140.27 92.15 140.64 91.5C141.28 90.37 141.3 90.27 141.31 88.18C141.31 86.13 141.28 85.98 140.66 84.77C140.3 84.07 139.64 83.15 139.2 82.73C138.75 82.31 137.85 81.72 137.21 81.42C136.56 81.12 135.55 80.83 134.96 80.77C134.28 80.71 133.49 80.78 132.81 80.97ZM36.22 92.52C36.01 92.75 35.18 93.21 34.38 93.56C33.57 93.9 32.47 94.31 31.93 94.47C31.4 94.64 30.39 95.06 29.69 95.41C28.99 95.76 28.24 96.24 28.03 96.47C27.81 96.7 27.53 96.88 27.39 96.88C27.26 96.88 27.09 96.72 27.02 96.53C26.94 96.35 26.66 95.85 26.38 95.43C26.1 95.02 25.48 94.45 25 94.16C24.23 93.71 23.91 93.65 22.36 93.65C20.81 93.65 20.5 93.71 19.73 94.17C19.24 94.46 18.58 94.98 18.25 95.34C17.92 95.7 17.45 96.52 17.2 97.17C16.8 98.17 16.73 98.77 16.66 101.37C16.62 103.03 16.65 104.51 16.74 104.64C16.86 104.84 17.04 104.83 17.63 104.59C18.24 104.34 19.68 104.3 26.61 104.3C33.37 104.3 35.03 104.35 35.79 104.59C36.63 104.86 36.72 104.85 36.77 104.57C36.79 104.39 36.79 103.38 36.77 102.32C36.72 100.57 36.69 100.4 36.38 100.53C36.19 100.61 34.34 100.72 32.27 100.78C30.2 100.83 28.42 100.86 28.32 100.83C28.21 100.8 28.13 100.61 28.13 100.39C28.13 100.15 28.45 99.76 28.96 99.41C29.41 99.08 30.27 98.63 30.86 98.41C31.45 98.2 32.46 97.9 33.11 97.75C33.75 97.6 34.78 97.25 35.4 96.98C36.02 96.71 36.57 96.37 36.63 96.24C36.68 96.11 36.7 95.12 36.67 94.05C36.61 92.11 36.6 92.11 36.22 92.52ZM163.35 99.44L163.38 104.2C166.1 104.28 167 104.26 167.14 104.2C167.3 104.14 167.19 103.91 166.8 103.52C166.47 103.19 166.12 102.6 166.02 102.2C165.91 101.79 165.82 100.96 165.82 100.34C165.82 99.72 165.86 99.09 165.92 98.93C166 98.68 166.61 98.63 169.82 98.63L173.63 98.63C173.63 101.21 173.54 102.17 173.44 102.44L173.24 102.93C176.59 102.93 176.75 102.9 176.62 102.59C176.55 102.4 176.46 101.43 176.43 100.44L176.37 98.63L180.47 98.63C180.46 102.32 180.4 102.71 180.08 103.13C179.87 103.39 179.69 103.68 179.69 103.76C179.69 103.84 180.46 103.88 181.4 103.86L183.11 103.81L183.22 94.63C182.19 94.94 178.45 95.02 173.14 95.02C168.31 95.02 164.12 94.94 163.84 94.85L163.33 94.68L163.35 99.44Z" />
		<path class="shp2" d="M21.11 96.92C20.75 97.06 20.19 97.48 19.88 97.85C19.43 98.4 19.31 98.75 19.28 99.61L19.24 100.68L25.49 100.68C25.59 99.93 25.41 99.24 25.16 98.66C24.86 97.96 24.5 97.5 24.07 97.25C23.72 97.04 23.06 96.83 22.61 96.78C22.15 96.72 21.48 96.79 21.11 96.92Z" />
		<path class="shp0" d="M47.66 106.59C47.66 106.99 47.78 108.03 47.94 108.89C48.09 109.75 48.53 111.68 48.91 113.18C49.28 114.69 49.78 116.4 50.01 116.99C50.24 117.58 50.54 118.42 50.68 118.85C50.83 119.28 51.34 120.51 51.82 121.58C52.3 122.66 53.02 124.15 53.43 124.9C53.83 125.65 54.39 126.62 54.67 127.05C54.95 127.48 55.29 128.05 55.43 128.32C55.56 128.59 56.42 129.82 57.34 131.05C58.25 132.29 59.81 134.21 60.8 135.32C61.79 136.43 63.52 138.16 64.65 139.17C65.78 140.18 67.71 141.75 68.95 142.67C70.18 143.58 71.41 144.44 71.68 144.57C71.95 144.71 72.52 145.05 72.95 145.33C73.38 145.61 74.35 146.17 75.1 146.57C75.85 146.98 77.34 147.7 78.42 148.18C79.49 148.66 80.72 149.17 81.15 149.32C81.58 149.46 82.42 149.76 83.01 149.99C83.6 150.22 85.31 150.72 86.82 151.09C88.32 151.47 90.25 151.91 91.11 152.06C91.97 152.22 93.01 152.34 93.41 152.34C93.97 152.34 94.14 152.27 94.15 152C94.15 151.81 94.02 151.33 93.85 150.93C93.69 150.52 93.44 150.16 93.31 150.12C93.18 150.08 92.28 149.89 91.31 149.7C90.34 149.51 89.11 149.28 88.57 149.19C88.04 149.1 86.59 148.71 85.35 148.32C84.12 147.94 82.8 147.51 82.42 147.37C82.05 147.23 81.25 146.9 80.66 146.65C80.07 146.4 78.75 145.79 77.73 145.29C76.71 144.8 74.91 143.8 73.73 143.08C72.55 142.36 71.2 141.49 70.74 141.15C70.27 140.81 69.08 139.87 68.1 139.07C67.11 138.27 65.38 136.69 64.25 135.56C63.12 134.42 61.58 132.73 60.83 131.79C60.08 130.86 59.19 129.72 58.85 129.26C58.51 128.79 57.64 127.45 56.92 126.27C56.19 125.09 55.14 123.15 54.58 121.97C54.02 120.79 53.39 119.43 53.17 118.95C52.95 118.46 52.64 117.63 52.47 117.09C52.29 116.55 51.9 115.32 51.59 114.36C51.29 113.39 50.79 111.32 50.5 109.77C50.2 108.21 49.92 106.82 49.88 106.69C49.84 106.56 49.48 106.31 49.07 106.15C48.67 105.98 48.19 105.85 48 105.85C47.73 105.86 47.66 106.03 47.66 106.59ZM151.02 106.13C150.66 106.26 150.3 106.5 150.2 106.65C150.11 106.81 149.79 108.21 149.5 109.77C149.21 111.32 148.71 113.39 148.41 114.36C148.1 115.32 147.71 116.55 147.53 117.09C147.36 117.63 147.05 118.46 146.83 118.95C146.61 119.43 145.98 120.79 145.42 121.97C144.86 123.15 143.81 125.09 143.08 126.27C142.36 127.45 141.49 128.8 141.15 129.26C140.81 129.72 139.87 130.91 139.07 131.9C138.27 132.88 136.69 134.62 135.56 135.75C134.42 136.89 132.73 138.42 131.8 139.17C130.87 139.92 129.73 140.81 129.26 141.15C128.8 141.49 127.45 142.36 126.27 143.08C125.09 143.8 123.29 144.8 122.27 145.29C121.25 145.79 119.93 146.4 119.34 146.65C118.75 146.9 117.95 147.23 117.58 147.37C117.2 147.51 115.88 147.94 114.65 148.32C113.41 148.71 111.96 149.1 111.43 149.19C110.89 149.28 109.66 149.51 108.69 149.7C107.72 149.89 106.82 150.08 106.69 150.12C106.56 150.16 106.31 150.52 106.15 150.93C105.98 151.33 105.85 151.81 105.85 152C105.86 152.27 106.03 152.34 106.59 152.34C106.99 152.34 108.03 152.22 108.89 152.06C109.75 151.91 111.68 151.47 113.18 151.09C114.69 150.72 116.4 150.22 116.99 149.99C117.58 149.76 118.42 149.46 118.85 149.32C119.28 149.17 120.51 148.66 121.58 148.18C122.66 147.7 124.15 146.98 124.9 146.57C125.65 146.17 126.62 145.61 127.05 145.33C127.48 145.05 128.05 144.71 128.32 144.57C128.59 144.44 129.82 143.58 131.05 142.67C132.29 141.75 134.22 140.18 135.35 139.17C136.48 138.16 138.21 136.43 139.2 135.32C140.19 134.21 141.75 132.29 142.66 131.05C143.58 129.82 144.44 128.59 144.57 128.32C144.71 128.05 145.05 127.48 145.33 127.05C145.61 126.62 146.19 125.61 146.62 124.8C147.05 124 147.74 122.59 148.14 121.68C148.54 120.77 149.03 119.58 149.23 119.04C149.42 118.51 149.77 117.58 149.99 116.99C150.22 116.4 150.72 114.69 151.09 113.18C151.47 111.68 151.91 109.75 152.06 108.89C152.22 108.03 152.34 106.99 152.34 106.59C152.34 106.02 152.27 105.86 152 105.87C151.81 105.88 151.37 106 151.02 106.13ZM98.54 110.25C97.89 110.95 97.11 111.98 96.79 112.55C96.36 113.31 96.22 113.82 96.23 114.55C96.23 115.23 96.41 115.88 96.82 116.7C97.15 117.34 97.64 118.66 97.92 119.63C98.2 120.6 98.52 121.96 98.63 122.66C98.74 123.35 98.83 124.21 98.83 124.56C98.83 125.1 98.76 125.19 98.39 125.15C98.01 125.1 97.93 124.91 97.7 123.54C97.53 122.54 97.2 121.51 96.77 120.7C96.41 120 95.73 119.04 95.26 118.55C94.79 118.07 93.98 117.47 93.44 117.22C92.91 116.97 92.08 116.71 91.6 116.65C91.05 116.59 90.36 116.67 89.75 116.86C89.19 117.04 88.5 117.46 88.16 117.82C87.82 118.17 87.44 118.81 87.3 119.24C87.17 119.67 87.11 120.37 87.18 120.8C87.24 121.23 87.5 121.86 87.74 122.21C87.98 122.55 88.38 122.93 88.62 123.04C88.86 123.15 89.41 123.24 89.84 123.24C90.27 123.24 90.82 123.15 91.06 123.04C91.31 122.93 91.66 122.58 91.85 122.26C92.03 121.94 92.19 121.42 92.19 121.09C92.19 120.77 92.1 120.33 91.99 120.12C91.88 119.9 91.82 119.69 91.85 119.64C91.87 119.59 92.22 119.63 92.63 119.73C93.06 119.85 93.69 120.26 94.18 120.75C94.63 121.21 95.2 122.02 95.44 122.56C95.69 123.1 95.94 123.93 96.01 124.41L96.14 125.29C94.65 125.93 94.51 126.08 94.41 126.71C94.31 127.29 94.36 127.49 94.65 127.69C94.86 127.82 95.17 127.93 95.36 127.93C95.55 127.93 95.79 128.11 95.9 128.32C96.03 128.57 96.03 129.04 95.91 129.64C95.81 130.15 95.6 130.92 95.45 131.35C95.3 131.78 94.93 132.61 94.63 133.2C94.33 133.79 93.59 134.77 92.99 135.37C92.27 136.1 91.63 136.55 91.11 136.69C90.68 136.81 90 136.91 89.6 136.91C89.2 136.91 88.58 136.8 88.23 136.66C87.88 136.52 87.36 136.1 87.08 135.73C86.79 135.36 86.5 134.82 86.44 134.52C86.38 134.21 86.42 133.92 86.55 133.84C86.68 133.75 86.84 133.84 86.94 134.03C87.03 134.22 87.37 134.51 87.7 134.67C88.02 134.83 88.61 134.96 89.01 134.95C89.42 134.95 90.03 134.78 90.38 134.56C90.73 134.35 91.17 133.89 91.35 133.54C91.55 133.16 91.68 132.48 91.67 131.84C91.67 131.25 91.53 130.5 91.36 130.18C91.19 129.85 90.89 129.44 90.69 129.26C90.49 129.08 89.89 128.74 89.36 128.5C88.68 128.2 87.99 128.06 87.11 128.06C86.35 128.06 85.42 128.21 84.79 128.43C84.21 128.64 83.37 129.13 82.93 129.51C82.49 129.9 81.89 130.69 81.59 131.27C81.3 131.85 80.96 132.85 80.84 133.5C80.65 134.48 80.66 134.87 80.94 135.94C81.12 136.64 81.57 137.65 81.93 138.18C82.29 138.72 82.88 139.41 83.23 139.72C83.59 140.02 84.37 140.5 84.96 140.78C85.91 141.23 86.28 141.29 88.12 141.3C90.14 141.31 90.26 141.28 91.52 140.63C92.25 140.25 93.29 139.5 93.85 138.96C94.41 138.43 95.17 137.5 95.55 136.91C95.92 136.32 96.48 135.22 96.77 134.47C97.07 133.72 97.44 132.31 97.6 131.35C97.75 130.38 97.94 129.28 98.02 128.91C98.11 128.48 98.29 128.2 98.49 128.17C98.75 128.14 98.83 128.27 98.83 128.71C98.83 129.03 98.74 129.98 98.62 130.81C98.51 131.64 98.19 133.42 97.91 134.77C97.64 136.11 97.15 137.95 96.83 138.87C96.51 139.78 96.08 141.49 95.87 142.68C95.63 144.01 95.54 145.19 95.61 145.8C95.67 146.34 95.86 147.48 96.03 148.34C96.24 149.39 96.63 150.45 97.22 151.56C97.7 152.48 98.46 153.73 98.9 154.35C99.34 154.97 99.84 155.48 100 155.48C100.16 155.48 100.79 154.76 101.39 153.87C101.99 152.98 102.76 151.67 103.09 150.98C103.42 150.28 103.82 149.09 103.98 148.34C104.13 147.59 104.31 146.49 104.38 145.9C104.46 145.19 104.38 144.09 104.13 142.68C103.92 141.49 103.48 139.74 103.15 138.77C102.82 137.8 102.33 135.96 102.07 134.67C101.8 133.38 101.49 131.64 101.38 130.81C101.26 129.98 101.17 129.03 101.17 128.71C101.17 128.27 101.25 128.14 101.51 128.17C101.71 128.2 101.89 128.48 101.98 128.91C102.06 129.28 102.25 130.38 102.4 131.35C102.56 132.31 102.93 133.72 103.23 134.47C103.52 135.22 104.08 136.32 104.46 136.91C104.83 137.5 105.61 138.43 106.17 138.96C106.74 139.5 107.78 140.25 108.5 140.63C109.74 141.28 109.87 141.31 111.88 141.31C113.86 141.31 114.03 141.27 115.23 140.66C115.93 140.3 116.85 139.64 117.27 139.2C117.69 138.75 118.28 137.85 118.58 137.21C118.88 136.56 119.18 135.64 119.25 135.16C119.33 134.6 119.25 133.82 119.05 133.01C118.87 132.31 118.49 131.35 118.2 130.87C117.91 130.4 117.32 129.72 116.89 129.36C116.46 129 115.67 128.55 115.14 128.38C114.57 128.19 113.58 128.06 112.79 128.06C111.79 128.07 111.19 128.19 110.55 128.51C110.06 128.75 109.51 129.1 109.31 129.27C109.11 129.45 108.81 129.85 108.64 130.18C108.47 130.5 108.33 131.25 108.33 131.84C108.32 132.48 108.45 133.16 108.65 133.54C108.83 133.89 109.27 134.35 109.62 134.56C109.97 134.78 110.61 134.95 111.04 134.96C111.46 134.96 112.04 134.82 112.3 134.64C112.57 134.46 112.9 134.18 113.04 134C113.2 133.8 113.34 133.76 113.46 133.89C113.56 133.99 113.59 134.35 113.52 134.67C113.45 134.99 113.09 135.57 112.7 135.97C112.19 136.49 111.78 136.72 111.13 136.82C110.59 136.91 109.84 136.86 109.18 136.7C108.3 136.49 107.9 136.25 107.01 135.36C106.39 134.74 105.64 133.73 105.28 133.01C104.93 132.31 104.47 131.06 104.27 130.22C104.01 129.14 103.96 128.6 104.1 128.32C104.21 128.11 104.56 127.89 104.88 127.83C105.21 127.78 105.52 127.62 105.59 127.49C105.66 127.36 105.66 126.96 105.59 126.61C105.49 126.1 105.31 125.91 104.66 125.63L103.86 125.29C104.06 123.93 104.31 123.1 104.56 122.56C104.8 122.02 105.37 121.21 105.82 120.75C106.31 120.26 106.94 119.85 107.37 119.73C107.78 119.63 108.13 119.59 108.15 119.64C108.18 119.69 108.12 119.9 108.01 120.12C107.9 120.33 107.81 120.77 107.81 121.09C107.81 121.42 107.97 121.94 108.15 122.26C108.34 122.58 108.69 122.93 108.94 123.04C109.18 123.15 109.73 123.24 110.16 123.24C110.59 123.24 111.14 123.15 111.38 123.04C111.62 122.93 112.01 122.55 112.26 122.21C112.5 121.86 112.75 121.27 112.82 120.9C112.89 120.5 112.83 119.81 112.67 119.26C112.5 118.63 112.17 118.09 111.72 117.68C111.34 117.34 110.68 116.95 110.25 116.81C109.8 116.66 109.07 116.59 108.5 116.65C107.96 116.71 107.12 116.94 106.64 117.17C106.16 117.39 105.45 117.86 105.06 118.21C104.68 118.56 104.1 119.24 103.78 119.73C103.46 120.21 103.05 120.96 102.87 121.39C102.68 121.82 102.42 122.83 102.28 123.63C102.07 124.92 101.99 125.1 101.61 125.15C101.24 125.19 101.17 125.1 101.17 124.61C101.17 124.29 101.27 123.39 101.38 122.61C101.5 121.83 101.84 120.4 102.14 119.43C102.43 118.47 102.92 117.19 103.22 116.6C103.6 115.86 103.77 115.23 103.77 114.55C103.77 113.86 103.62 113.29 103.26 112.6C102.97 112.06 102.18 111.03 101.51 110.31C100.84 109.59 100.16 108.99 100 108.99C99.84 108.99 99.18 109.56 98.54 110.25ZM36.3 121.42C36.15 121.6 35.57 121.95 35.01 122.2C34.45 122.45 33.9 122.66 33.79 122.66C33.68 122.66 32.87 122.96 31.98 123.33C31.1 123.7 29.34 124.4 28.08 124.89C26.81 125.38 25.57 125.78 25.31 125.78C25.05 125.78 24.69 125.91 24.53 126.07C24.25 126.34 24.27 126.49 24.76 127.64C25.05 128.34 25.38 128.92 25.49 128.92C25.6 128.92 25.78 128.81 25.91 128.67C26.03 128.53 26.69 128.19 27.37 127.91C28.05 127.63 29.1 127.21 29.69 126.98C30.28 126.75 30.96 126.56 31.2 126.56C31.49 126.56 31.71 126.73 31.84 127.05C31.94 127.32 32.03 127.76 32.03 128.03C32.03 128.3 32.12 128.69 32.23 128.91C32.42 129.3 32.42 129.3 33.45 128.9C34.01 128.68 34.52 128.46 34.57 128.41C34.62 128.36 34.48 128.07 34.26 127.78C34.03 127.49 33.73 126.91 33.58 126.5C33.33 125.83 33.34 125.72 33.61 125.52C33.79 125.4 34.43 125.12 35.04 124.9C36.02 124.56 36.18 124.55 36.34 124.8C36.43 124.97 36.66 125.54 36.83 126.07C37.01 126.62 37.1 127.29 37.03 127.59C36.93 128.03 36.98 128.13 37.3 128.13C37.52 128.13 38.05 127.95 38.48 127.73C38.91 127.52 39.26 127.21 39.26 127.05C39.26 126.89 39.04 126.19 38.77 125.49C38.5 124.79 38.05 123.63 37.78 122.9C37.5 122.18 37.17 121.47 37.04 121.33C36.92 121.19 36.76 121.08 36.69 121.09C36.62 121.09 36.45 121.24 36.3 121.42ZM164.26 121.25C164.1 121.33 163.71 121.56 163.41 121.78C163.1 121.99 162.68 122.48 162.46 122.85C162.24 123.23 161.72 124.37 161.3 125.39C160.88 126.41 160.54 127.36 160.55 127.49C160.55 127.63 160.79 127.73 161.08 127.73C161.38 127.73 162.06 127.9 162.6 128.1C163.13 128.3 164.76 128.91 166.21 129.47C167.66 130.02 169.46 130.72 170.21 131.01C170.95 131.3 171.94 131.78 172.4 132.08C173.18 132.57 173.26 132.59 173.42 132.28C173.51 132.09 173.93 131.1 174.35 130.08C175.01 128.43 175.1 128.04 175.1 126.56C175.1 125.02 175.06 124.85 174.51 124.14C174.19 123.73 173.6 123.22 173.19 123.02C172.78 122.82 172.05 122.66 171.53 122.66C170.89 122.66 170.37 122.81 169.82 123.14C169.39 123.4 169 123.63 168.95 123.63C168.89 123.64 168.72 123.37 168.55 123.02C168.39 122.68 167.93 122.11 167.53 121.75C166.87 121.16 166.68 121.1 165.67 121.11C165.06 121.12 164.42 121.18 164.26 121.25Z" />
		<path class="shp2" d="M164.06 124.08C163.69 124.44 163.41 124.9 163.43 125.11C163.45 125.32 163.57 125.59 163.71 125.7C163.85 125.82 164.55 126.13 165.26 126.39C166.42 126.81 166.59 126.82 166.88 126.56C167.08 126.39 167.2 125.98 167.2 125.54C167.19 125.13 167.1 124.63 166.99 124.41C166.88 124.2 166.53 123.89 166.21 123.73C165.89 123.57 165.42 123.44 165.17 123.44C164.93 123.44 164.43 123.73 164.06 124.08ZM169.64 125.64C169.33 125.88 168.95 126.38 168.79 126.76C168.53 127.41 168.54 127.46 168.98 127.79C169.23 127.98 169.52 128.14 169.63 128.13C169.74 128.12 170.22 128.29 170.7 128.51C171.19 128.72 171.87 128.9 172.22 128.9C172.81 128.91 172.86 128.85 173.05 128.03C173.2 127.34 173.18 127 172.95 126.46C172.78 126.08 172.4 125.65 172.07 125.49C171.75 125.33 171.2 125.2 170.85 125.2C170.5 125.2 169.96 125.4 169.64 125.64Z" />
		<path class="shp0" d="M157.56 133.25C157.3 133.6 156.94 134.1 156.77 134.37C156.59 134.64 156.44 134.94 156.44 135.05C156.44 135.16 156.77 135.42 157.17 135.62C157.58 135.82 159.35 136.92 161.11 138.06C162.87 139.2 164.62 140.4 165 140.72C165.49 141.15 165.68 141.48 165.7 141.93C165.72 142.38 165.56 142.72 165.14 143.16C164.72 143.59 164.37 143.76 163.92 143.75C163.44 143.75 162.33 143.14 159.44 141.26C157.33 139.89 155.44 138.57 155.24 138.33C155.04 138.09 154.77 137.89 154.64 137.89C154.5 137.9 154.09 138.42 153.71 139.05C153.33 139.69 153.03 140.26 153.03 140.34C153.03 140.41 153.33 140.57 153.71 140.7C154.09 140.83 155.84 141.89 157.62 143.06C159.39 144.22 161.24 145.39 161.72 145.64C162.29 145.94 162.92 146.1 163.53 146.1C164.04 146.1 164.74 145.97 165.09 145.82C165.44 145.68 166 145.26 166.34 144.9C166.68 144.53 167.16 143.84 167.41 143.36C167.68 142.83 167.86 142.13 167.86 141.6C167.86 141 167.69 140.43 167.33 139.79C166.94 139.13 166.38 138.58 165.28 137.83C164.45 137.26 162.68 136.09 161.35 135.24C160.02 134.39 158.73 133.45 158.49 133.15L158.03 132.61L157.56 133.25ZM38.96 133.86C38.54 134 37.61 134.41 36.91 134.77C36.22 135.13 35.12 135.84 34.47 136.34C33.83 136.84 33.06 137.57 32.76 137.96C32.47 138.35 32.09 139.05 31.92 139.5C31.73 140.01 31.65 140.67 31.7 141.21C31.75 141.69 31.97 142.44 32.19 142.87C32.4 143.3 32.79 143.85 33.04 144.08C33.29 144.32 33.83 144.65 34.23 144.81C34.63 144.98 35.38 145.12 35.89 145.12C36.4 145.12 37.3 144.96 37.89 144.76C38.48 144.56 39.36 144.19 39.84 143.95C40.33 143.7 41.03 143.27 41.41 142.99C41.78 142.71 42.52 142.09 43.04 141.6C43.57 141.12 44.21 140.28 44.46 139.75C44.73 139.17 44.92 138.41 44.92 137.89C44.92 137.37 44.73 136.61 44.46 136.04C44.2 135.5 43.79 134.87 43.53 134.63C43.28 134.39 42.74 134.06 42.33 133.9C41.93 133.73 41.18 133.6 40.67 133.61C40.16 133.61 39.39 133.73 38.96 133.86Z" />
		<path class="shp2" d="M39.36 136.46C38.71 136.74 37.57 137.38 36.82 137.9C36.06 138.41 35.17 139.12 34.83 139.48C34.48 139.84 34.07 140.4 33.91 140.72C33.68 141.19 33.67 141.42 33.85 141.88C33.99 142.23 34.33 142.56 34.72 142.71C35.07 142.85 35.59 142.91 35.89 142.85C36.18 142.78 37.04 142.42 37.79 142.05C38.54 141.67 39.6 141.05 40.14 140.67C40.67 140.28 41.4 139.7 41.76 139.37C42.11 139.04 42.53 138.48 42.68 138.13C42.84 137.79 42.97 137.37 42.97 137.21C42.97 137.05 42.75 136.69 42.48 136.43C42.13 136.07 41.79 135.94 41.26 135.95C40.86 135.95 40 136.18 39.36 136.46Z" />
		<path class="shp0" d="M48.63 145.95C48.04 146.19 47.08 146.74 46.5 147.17C45.92 147.6 44.9 148.53 44.25 149.25C43.6 149.97 42.85 150.98 42.58 151.5C42.19 152.24 42.09 152.73 42.09 153.83C42.09 155 42.17 155.32 42.61 155.97C42.9 156.39 43.51 157 43.96 157.32C44.7 157.85 44.95 157.91 46.21 157.91C47.4 157.91 47.81 157.82 48.76 157.32C49.46 156.96 50.58 156.07 51.67 154.98C52.93 153.74 53.61 152.88 54.01 152.05C54.42 151.2 54.57 150.58 54.57 149.8C54.57 149.21 54.43 148.47 54.26 148.14C54.1 147.82 53.7 147.27 53.39 146.93C53.09 146.58 52.37 146.12 51.81 145.9C51.24 145.69 50.54 145.51 50.24 145.51C49.95 145.51 49.22 145.71 48.63 145.95ZM146.09 147.52C145.51 148.08 145.05 148.65 145.07 148.79C145.1 148.92 145.38 149.16 145.7 149.32C146.03 149.48 147.98 151.31 150.05 153.4C152.12 155.48 153.96 157.46 154.15 157.79C154.34 158.13 154.62 158.4 154.79 158.4C154.95 158.4 156.11 157.29 157.37 155.94L159.67 153.48C158 151.85 157.45 151.42 157.37 151.47C157.29 151.52 157.23 151.87 157.23 152.25C157.23 152.75 157.04 153.15 156.52 153.76C156.13 154.22 155.69 154.66 155.54 154.74C155.36 154.84 154.28 153.92 152.03 151.71C150.24 149.96 148.48 148.07 148.12 147.51C147.76 146.95 147.39 146.48 147.31 146.48C147.22 146.48 146.68 146.95 146.09 147.52Z" />
		<path class="shp2" d="M50.39 147.83C50.12 147.91 49.46 148.27 48.93 148.63C48.39 148.99 47.55 149.64 47.07 150.06C46.59 150.48 45.81 151.32 45.35 151.93C44.89 152.53 44.4 153.35 44.28 153.75C44.09 154.32 44.1 154.59 44.29 154.97C44.42 155.25 44.75 155.56 45.02 155.66C45.29 155.77 45.75 155.8 46.04 155.73C46.34 155.67 46.89 155.45 47.27 155.27C47.64 155.08 48.56 154.36 49.3 153.68C50.04 153 51 151.96 51.43 151.37C51.95 150.66 52.25 150.02 52.3 149.51C52.36 148.94 52.29 148.62 52.02 148.31C51.82 148.08 51.48 147.84 51.27 147.79C51.05 147.74 50.66 147.76 50.39 147.83Z" />
		<path class="shp0" d="M139.06 153.47C138.69 153.65 138.02 154.16 137.59 154.59C137.11 155.06 136.66 155.76 136.46 156.35C136.28 156.88 136.13 157.68 136.13 158.11C136.13 158.54 136.27 159.37 136.44 159.96C136.61 160.55 137.03 161.52 137.36 162.11C137.7 162.7 138.41 163.65 138.96 164.23C139.5 164.8 140.38 165.52 140.92 165.83C141.75 166.31 142.11 166.4 143.36 166.4C144.4 166.41 145.01 166.31 145.45 166.07C145.79 165.88 146.43 165.39 146.86 164.99C147.3 164.59 147.66 164.1 147.66 163.92C147.66 163.73 147.4 163.2 147.08 162.74C146.75 162.29 146.4 161.87 146.29 161.82C146.18 161.76 146.04 162.05 145.97 162.45C145.9 162.88 145.62 163.41 145.3 163.72C144.9 164.12 144.56 164.26 144.01 164.26C143.6 164.26 142.93 164.08 142.53 163.87C142.13 163.65 141.53 163.23 141.2 162.94C140.87 162.64 140.26 161.88 139.84 161.23C139.42 160.59 138.89 159.58 138.66 158.98C138.38 158.26 138.28 157.69 138.35 157.23C138.42 156.83 138.74 156.27 139.11 155.88C139.73 155.25 139.78 155.23 140.87 155.35L141.99 155.47C141.39 154.48 141.06 153.96 140.87 153.66C140.68 153.37 140.35 153.13 140.14 153.13C139.92 153.13 139.44 153.28 139.06 153.47ZM60.03 154.74C59.75 155.19 59.48 155.68 59.44 155.81C59.4 155.98 59.63 156.05 60.21 156.05C60.66 156.05 61.2 156.16 61.4 156.3C61.73 156.52 61.74 156.6 61.5 157.09C61.35 157.39 60.09 159.4 58.69 161.56C57.29 163.72 55.95 165.65 55.71 165.85C55.47 166.05 55.27 166.28 55.28 166.36C55.28 166.44 55.78 166.83 56.4 167.23C57.01 167.63 57.67 167.96 57.86 167.96C58.06 167.97 58.21 167.82 58.21 167.63C58.21 167.44 58.52 166.76 58.9 166.11C59.28 165.47 60.28 163.89 61.13 162.6C61.98 161.31 62.92 159.84 63.22 159.33C63.52 158.82 63.9 158.36 64.06 158.3C64.23 158.24 64.59 158.43 64.9 158.74C65.2 159.03 65.48 159.43 65.53 159.62C65.58 159.81 65.71 159.96 65.82 159.96C65.93 159.96 66.24 159.57 66.5 159.08C66.77 158.6 66.99 158.05 66.99 157.86C66.99 157.67 66.63 157.3 66.18 157.03C65.74 156.76 65.24 156.45 65.06 156.34C64.89 156.23 63.98 155.64 63.04 155.02C62.1 154.41 61.15 153.91 60.94 153.91C60.69 153.91 60.36 154.21 60.03 154.74ZM73.35 161.13C73.29 161.24 73.29 161.37 73.34 161.43C73.39 161.48 73.18 162.25 72.86 163.13C72.55 164.02 72.1 165.23 71.87 165.82C71.64 166.41 71.3 167.33 71.1 167.87C70.91 168.41 70.43 169.66 70.04 170.65C69.65 171.65 69.14 172.72 68.9 173.04C68.65 173.36 68.5 173.67 68.55 173.71C68.61 173.76 69.53 174.12 70.61 174.52C71.68 174.91 73 175.36 73.54 175.5C74.23 175.69 74.76 175.72 75.39 175.59C75.87 175.49 76.58 175.15 76.95 174.84C77.33 174.53 77.81 173.98 78.02 173.61C78.28 173.17 78.41 172.59 78.41 171.88C78.41 171.11 78.29 170.59 77.98 170.07C77.74 169.67 77.54 169.25 77.54 169.14C77.54 169.03 77.74 168.89 77.98 168.82C78.22 168.75 78.66 168.51 78.96 168.28C79.26 168.06 79.63 167.54 79.79 167.14C79.95 166.74 80.08 166.16 80.08 165.87C80.09 165.57 79.96 165.02 79.81 164.65C79.65 164.27 79.23 163.69 78.87 163.35C78.52 163.01 77.92 162.59 77.54 162.4C77.16 162.21 76.14 161.81 75.26 161.5C74.38 161.19 73.61 160.94 73.56 160.94C73.5 160.94 73.41 161.03 73.35 161.13Z" />
		<path class="shp2" d="M75.26 164.01C75.19 164.2 74.93 164.86 74.68 165.48C74.43 166.1 74.22 166.71 74.21 166.85C74.21 166.98 74.43 167.2 74.7 167.33C74.97 167.47 75.42 167.58 75.68 167.58C75.95 167.58 76.48 167.31 76.86 166.99C77.42 166.51 77.54 166.27 77.53 165.67C77.53 165.1 77.38 164.81 76.85 164.31C76.48 163.96 75.99 163.67 75.78 163.67C75.56 163.67 75.33 163.83 75.26 164.01Z" />
		<path class="shp0" d="M117.1 164.09C116.46 164.31 115.96 164.59 115.98 164.71C116.01 164.84 116.16 165.12 116.32 165.33C116.48 165.55 116.91 166.69 117.27 167.87C117.63 169.05 118.33 171.38 118.83 173.05C119.33 174.71 119.73 176.4 119.73 176.81C119.73 177.38 119.8 177.54 120.07 177.54C120.26 177.54 120.85 177.42 121.39 177.27C121.92 177.13 123.27 176.71 124.37 176.34C126.04 175.8 126.38 175.62 126.37 175.29C126.37 175.08 126.21 174.44 126.02 173.87C125.84 173.31 125.6 172.85 125.49 172.85C125.38 172.85 125.14 173.12 124.95 173.44C124.76 173.76 124.28 174.17 123.88 174.34C123.47 174.52 122.89 174.67 122.58 174.68C122.06 174.71 121.98 174.62 121.56 173.44C121.31 172.74 121.11 172.04 121.1 171.88C121.1 171.71 120.83 170.75 120.5 169.73C120.18 168.71 119.7 167.08 119.45 166.11C119.19 165.15 119.02 164.2 119.06 164.01C119.12 163.76 119.02 163.68 118.7 163.69C118.46 163.7 117.74 163.88 117.1 164.09ZM89.98 165.9C89.9 166.07 89.84 166.47 89.84 166.8C89.84 167.12 89.49 168.22 89.06 169.24C88.63 170.26 88.28 171.16 88.28 171.24C88.28 171.32 88.01 172.05 87.68 172.85C87.35 173.66 86.84 174.98 86.55 175.78C86.25 176.59 85.82 177.53 85.59 177.88C85.35 178.23 85.16 178.58 85.15 178.66C85.15 178.74 85.7 178.87 86.37 178.96C87.05 179.04 87.77 179.1 87.99 179.1C88.33 179.1 88.38 178.97 88.38 178.03C88.38 177.35 88.48 176.86 88.67 176.66C88.91 176.41 89.18 176.38 90.13 176.51L91.3 176.66C91.57 178.38 91.54 178.72 91.31 179.05C91.04 179.45 91.05 179.5 91.36 179.59C91.55 179.64 92.31 179.76 93.07 179.86C93.82 179.95 94.46 180.02 94.48 180C94.51 179.99 94.41 179.67 94.26 179.3C94.11 178.92 93.88 177.73 93.75 176.66C93.63 175.59 93.41 173.83 93.26 172.75C93.12 171.68 92.95 169.72 92.89 168.41C92.82 167.09 92.71 165.98 92.63 165.94C92.55 165.9 91.95 165.8 91.3 165.73C90.31 165.62 90.09 165.65 89.98 165.9ZM103.3 166.39L102.39 166.5C102.77 168.02 102.99 169.82 103.12 171.48C103.25 173.15 103.43 175.21 103.53 176.07C103.63 176.93 103.71 178.03 103.71 178.52C103.72 179 103.61 179.5 103.47 179.64C103.33 179.77 103.27 179.93 103.32 179.99C103.37 180.05 104.91 180 106.74 179.88C108.56 179.75 110.14 179.59 110.24 179.52C110.33 179.45 110.36 178.78 110.29 178.03C110.22 177.28 110.12 176.62 110.07 176.56C110.02 176.51 109.71 176.71 109.38 177C109.06 177.3 108.46 177.63 108.06 177.73C107.65 177.84 107.13 177.93 106.88 177.93C106.61 177.93 106.38 177.76 106.27 177.49C106.17 177.25 105.95 175.51 105.78 173.63C105.61 171.75 105.46 169.31 105.47 168.21L105.47 166.21C104.48 166.26 103.79 166.32 103.3 166.39Z" />
		<path class="shp2" d="M73.09 169.87C72.88 170.38 72.54 171.26 72.34 171.82C72.09 172.51 72.04 172.91 72.17 173.05C72.28 173.16 72.71 173.33 73.14 173.43C73.7 173.55 74.09 173.53 74.51 173.35C74.83 173.21 75.25 172.93 75.44 172.73C75.64 172.51 75.79 172.01 75.82 171.48C75.84 170.94 75.73 170.4 75.52 170.07C75.34 169.77 74.87 169.4 74.46 169.23C74.06 169.07 73.67 168.94 73.6 168.94C73.53 168.94 73.3 169.36 73.09 169.87ZM90.55 171.39C90.37 171.82 90.09 172.54 89.93 173C89.78 173.45 89.65 173.96 89.65 174.12C89.65 174.3 89.9 174.46 90.28 174.53C90.77 174.62 90.97 174.57 91.15 174.29C91.28 174.07 91.33 173.57 91.27 173.05C91.21 172.56 91.1 171.82 91.02 171.39L90.89 170.61L90.55 171.39Z" />
	</g>
</svg>